<svg id="图层_1" data-name="图层 1" xmlns="http://www.w3.org/2000/svg" viewBox="0 0 246.77 50"><defs><style>.cls-1{fill:#fff;}</style></defs><title>LC-logo-text</title><path class="cls-1" d="M10.62,10.57h4V30H26.23v3.46H10.62Z"/><path class="cls-1" d="M36.06,33.86a9,9,0,0,1-3.54-.66A7.53,7.53,0,0,1,29.9,31.4a7.73,7.73,0,0,1-1.63-2.75,11.25,11.25,0,0,1,0-7,7.73,7.73,0,0,1,1.63-2.75,7.54,7.54,0,0,1,2.62-1.81,9.86,9.86,0,0,1,7.07,0,7.55,7.55,0,0,1,2.62,1.81,7.73,7.73,0,0,1,1.63,2.75,11.23,11.23,0,0,1,0,7,7.73,7.73,0,0,1-1.63,2.75,7.54,7.54,0,0,1-2.62,1.81A9,9,0,0,1,36.06,33.86Zm0-2.88a4.18,4.18,0,0,0,2.11-.51,4.45,4.45,0,0,0,1.47-1.34,5.86,5.86,0,0,0,.85-1.87,8.38,8.38,0,0,0,0-4.24,5.67,5.67,0,0,0-.85-1.87,4.52,4.52,0,0,0-1.47-1.33,4.61,4.61,0,0,0-4.22,0,4.52,4.52,0,0,0-1.47,1.33A5.67,5.67,0,0,0,31.63,23a8.38,8.38,0,0,0,0,4.24,5.86,5.86,0,0,0,.85,1.87,4.45,4.45,0,0,0,1.47,1.34A4.18,4.18,0,0,0,36.06,31Z"/><path class="cls-1" d="M62.75,32.55q0,3.74-2.1,5.58a8.87,8.87,0,0,1-6,1.84,12.61,12.61,0,0,1-2.51-.26,7.48,7.48,0,0,1-2.3-.86,5.55,5.55,0,0,1-1.74-1.6,4.85,4.85,0,0,1-.83-2.43h3.65a2.92,2.92,0,0,0,.54,1.25,2.82,2.82,0,0,0,.91.75,3.49,3.49,0,0,0,1.17.35,10.77,10.77,0,0,0,1.34.08,4.26,4.26,0,0,0,3.23-1.09,4.41,4.41,0,0,0,1-3.14V30.5H59a5.55,5.55,0,0,1-2.1,2.14,5.63,5.63,0,0,1-2.86.77,7.54,7.54,0,0,1-3.38-.69,6.41,6.41,0,0,1-2.3-1.89,7.84,7.84,0,0,1-1.33-2.77,13.06,13.06,0,0,1-.42-3.36,9.75,9.75,0,0,1,.51-3.17,8.07,8.07,0,0,1,1.47-2.64A7.07,7.07,0,0,1,51,17.1a7.17,7.17,0,0,1,3.15-.67,6.35,6.35,0,0,1,2.88.66,4.46,4.46,0,0,1,2,2.06h.06V16.87h3.65Zm-8.1-2a3.87,3.87,0,0,0,3.44-1.81,5.76,5.76,0,0,0,.77-1.86,9.28,9.28,0,0,0,.24-2.1,8.16,8.16,0,0,0-.26-2A5.54,5.54,0,0,0,58.06,21a3.8,3.8,0,0,0-1.38-1.22,4.3,4.3,0,0,0-2-.45,3.83,3.83,0,0,0-2,.51,4.09,4.09,0,0,0-1.34,1.33A5.73,5.73,0,0,0,50.52,23a9.78,9.78,0,0,0-.22,2.06,7.8,7.8,0,0,0,.26,2,5.51,5.51,0,0,0,.78,1.74,4.18,4.18,0,0,0,1.34,1.25A3.81,3.81,0,0,0,54.65,30.54Z"/><path class="cls-1" d="M66.52,10.57h3.65V14H66.52Zm0,6.3h3.65V33.42H66.52Z"/><path class="cls-1" d="M76.89,28.1a2.74,2.74,0,0,0,1.22,2.24,4.78,4.78,0,0,0,2.53.64,9.9,9.9,0,0,0,1.17-.08A5.06,5.06,0,0,0,83,30.6a2.3,2.3,0,0,0,.94-.66,1.58,1.58,0,0,0,.34-1.14,1.61,1.61,0,0,0-.51-1.15,3.56,3.56,0,0,0-1.23-.72,12,12,0,0,0-1.71-.46l-2-.42a17.92,17.92,0,0,1-2-.54,6.34,6.34,0,0,1-1.7-.86A4,4,0,0,1,74,23.26a4.44,4.44,0,0,1-.45-2.1,3.76,3.76,0,0,1,.66-2.26,5,5,0,0,1,1.66-1.47,7.25,7.25,0,0,1,2.24-.78,13.16,13.16,0,0,1,2.35-.22A10.76,10.76,0,0,1,83,16.7a6.66,6.66,0,0,1,2.11.88,5.18,5.18,0,0,1,1.57,1.58,5.49,5.49,0,0,1,.78,2.35H83.61a2.27,2.27,0,0,0-1.2-1.76,5,5,0,0,0-2.16-.45,7.67,7.67,0,0,0-.91.06,4.23,4.23,0,0,0-1,.24,2.08,2.08,0,0,0-.78.51,1.22,1.22,0,0,0-.32.88,1.39,1.39,0,0,0,.46,1.09,3.66,3.66,0,0,0,1.22.69,12,12,0,0,0,1.71.46l2,.42q1,.22,2,.54a6.27,6.27,0,0,1,1.71.86A4,4,0,0,1,88,28.49a4.46,4.46,0,0,1-.67,2.5,5.32,5.32,0,0,1-1.74,1.66,8,8,0,0,1-2.38.93,12.11,12.11,0,0,1-2.59.29,11.29,11.29,0,0,1-2.9-.35,6.75,6.75,0,0,1-2.3-1.07,5.17,5.17,0,0,1-1.54-1.79,5.68,5.68,0,0,1-.59-2.54Z"/><path class="cls-1" d="M89.08,16.87h2.75v-5h3.65v5h3.3v2.72h-3.3v8.83a8.77,8.77,0,0,0,0,1,1.72,1.72,0,0,0,.22.7,1.06,1.06,0,0,0,.53.43,2.58,2.58,0,0,0,1,.14l.77,0a3.78,3.78,0,0,0,.77-.11v2.82l-1.18.13a10.63,10.63,0,0,1-1.18.06,8.07,8.07,0,0,1-2.32-.27,3.09,3.09,0,0,1-1.38-.8A2.75,2.75,0,0,1,92,31.18a10,10,0,0,1-.21-1.82V19.59H89.08Z"/><path class="cls-1" d="M101.5,10.57h3.65V14H101.5Zm0,6.3h3.65V33.42H101.5Z"/><path class="cls-1" d="M120.28,22.41A3.42,3.42,0,0,0,119,20.09a4,4,0,0,0-2.54-.78,5.24,5.24,0,0,0-1.5.24,3.57,3.57,0,0,0-1.47.9,5,5,0,0,0-1.12,1.82,8.68,8.68,0,0,0-.45,3.06,8.94,8.94,0,0,0,.24,2,5.59,5.59,0,0,0,.77,1.82,4.16,4.16,0,0,0,1.36,1.3,3.87,3.87,0,0,0,2,.5A3.67,3.67,0,0,0,119,30a4.61,4.61,0,0,0,1.3-2.78h3.65a8,8,0,0,1-2.45,4.94,7.47,7.47,0,0,1-5.14,1.71,8.47,8.47,0,0,1-3.44-.66,7.27,7.27,0,0,1-2.51-1.79,7.58,7.58,0,0,1-1.55-2.7,10.55,10.55,0,0,1-.53-3.39,11.58,11.58,0,0,1,.51-3.49A8,8,0,0,1,110.36,19a7.19,7.19,0,0,1,2.54-1.89,8.58,8.58,0,0,1,3.57-.69,10,10,0,0,1,2.74.37,7.19,7.19,0,0,1,2.3,1.1,5.88,5.88,0,0,1,1.65,1.86,6.36,6.36,0,0,1,.77,2.66Z"/><path class="cls-1" d="M129.66,28.1a2.74,2.74,0,0,0,1.22,2.24,4.78,4.78,0,0,0,2.53.64,9.9,9.9,0,0,0,1.17-.08,5.06,5.06,0,0,0,1.23-.3,2.3,2.3,0,0,0,.94-.66,1.58,1.58,0,0,0,.34-1.14,1.61,1.61,0,0,0-.51-1.15,3.56,3.56,0,0,0-1.23-.72,12,12,0,0,0-1.71-.46l-2-.42a17.92,17.92,0,0,1-2-.54,6.34,6.34,0,0,1-1.7-.86,4,4,0,0,1-1.2-1.39,4.44,4.44,0,0,1-.45-2.1A3.76,3.76,0,0,1,127,18.9a5,5,0,0,1,1.66-1.47,7.25,7.25,0,0,1,2.24-.78,13.16,13.16,0,0,1,2.35-.22,10.76,10.76,0,0,1,2.45.27,6.66,6.66,0,0,1,2.11.88,5.18,5.18,0,0,1,1.57,1.58,5.49,5.49,0,0,1,.78,2.35h-3.81a2.27,2.27,0,0,0-1.2-1.76A5,5,0,0,0,133,19.3a7.67,7.67,0,0,0-.91.06,4.23,4.23,0,0,0-1,.24,2.08,2.08,0,0,0-.78.51A1.22,1.22,0,0,0,130,21a1.39,1.39,0,0,0,.46,1.09,3.66,3.66,0,0,0,1.22.69,12,12,0,0,0,1.71.46l2,.42q1,.22,2,.54a6.27,6.27,0,0,1,1.71.86,4,4,0,0,1,1.68,3.42,4.46,4.46,0,0,1-.67,2.5,5.32,5.32,0,0,1-1.74,1.66,8,8,0,0,1-2.38.93,12.11,12.11,0,0,1-2.59.29,11.29,11.29,0,0,1-2.9-.35,6.75,6.75,0,0,1-2.3-1.07,5.17,5.17,0,0,1-1.54-1.79A5.68,5.68,0,0,1,126,28.1Z"/><path class="cls-1" d="M168.35,17.83a8.22,8.22,0,0,0-.7-1.82,5,5,0,0,0-2.8-2.38,6.53,6.53,0,0,0-2.19-.34,6.4,6.4,0,0,0-3.15.74,6.17,6.17,0,0,0-2.16,2,8.88,8.88,0,0,0-1.23,2.8,13,13,0,0,0,0,6.4,8.88,8.88,0,0,0,1.23,2.8,6.17,6.17,0,0,0,2.16,2,6.4,6.4,0,0,0,3.15.74,5.69,5.69,0,0,0,2.37-.46A5.28,5.28,0,0,0,166.78,29a6,6,0,0,0,1.15-1.9,9.17,9.17,0,0,0,.54-2.34h3.9a10.83,10.83,0,0,1-.88,3.74,9.16,9.16,0,0,1-2,2.93,9,9,0,0,1-3,1.9,10.41,10.41,0,0,1-3.81.67,10.78,10.78,0,0,1-4.59-.94,10.09,10.09,0,0,1-3.44-2.58,11.53,11.53,0,0,1-2.16-3.81,14.59,14.59,0,0,1,0-9.25,11.52,11.52,0,0,1,2.16-3.81A10.27,10.27,0,0,1,158.06,11a10.61,10.61,0,0,1,4.59-1,12.12,12.12,0,0,1,3.62.53,9.36,9.36,0,0,1,3,1.54,8,8,0,0,1,2.1,2.45,8.53,8.53,0,0,1,1,3.3Z"/><path class="cls-1" d="M175.61,10.57h3.65V33.42h-3.65Z"/><path class="cls-1" d="M190.81,33.86a9,9,0,0,1-3.54-.66,7.53,7.53,0,0,1-2.62-1.81A7.73,7.73,0,0,1,183,28.65a11.25,11.25,0,0,1,0-7,7.73,7.73,0,0,1,1.63-2.75,7.54,7.54,0,0,1,2.62-1.81,9.86,9.86,0,0,1,7.07,0A7.55,7.55,0,0,1,197,18.89a7.73,7.73,0,0,1,1.63,2.75,11.23,11.23,0,0,1,0,7A7.73,7.73,0,0,1,197,31.4a7.54,7.54,0,0,1-2.62,1.81A9,9,0,0,1,190.81,33.86Zm0-2.88a4.18,4.18,0,0,0,2.11-.51,4.45,4.45,0,0,0,1.47-1.34,5.86,5.86,0,0,0,.85-1.87,8.38,8.38,0,0,0,0-4.24,5.67,5.67,0,0,0-.85-1.87,4.52,4.52,0,0,0-1.47-1.33,4.61,4.61,0,0,0-4.22,0,4.52,4.52,0,0,0-1.47,1.33,5.67,5.67,0,0,0-.85,1.87,8.38,8.38,0,0,0,0,4.24,5.86,5.86,0,0,0,.85,1.87,4.45,4.45,0,0,0,1.47,1.34A4.18,4.18,0,0,0,190.81,31Z"/><path class="cls-1" d="M216.73,33.42h-3.58v-2.3h-.06a5,5,0,0,1-2,2,5.44,5.44,0,0,1-2.7.75q-3.26,0-4.72-1.62a7.1,7.1,0,0,1-1.46-4.88V16.87h3.65V27a4.48,4.48,0,0,0,.83,3.07A3,3,0,0,0,209,31a4.6,4.6,0,0,0,1.92-.35,3.4,3.4,0,0,0,1.25-.94,3.62,3.62,0,0,0,.69-1.42,7.36,7.36,0,0,0,.21-1.79v-9.6h3.65Z"/><path class="cls-1" d="M236.15,33.42h-3.46V31.18h-.06a4.34,4.34,0,0,1-2.14,2.06,7.26,7.26,0,0,1-3,.62,7.9,7.9,0,0,1-3.41-.69,6.78,6.78,0,0,1-2.42-1.87,8,8,0,0,1-1.44-2.8,12.16,12.16,0,0,1-.48-3.47,11.1,11.1,0,0,1,.61-3.87A7.76,7.76,0,0,1,222,18.47a6.25,6.25,0,0,1,2.3-1.55,7.34,7.34,0,0,1,2.64-.5,8.79,8.79,0,0,1,1.57.14A6.92,6.92,0,0,1,230,17a6.05,6.05,0,0,1,1.36.82,4.54,4.54,0,0,1,1,1.17h.06V10.57h3.65Zm-12.74-8.1a8.06,8.06,0,0,0,.27,2.08,5.66,5.66,0,0,0,.83,1.82,4.2,4.2,0,0,0,1.42,1.28,4.15,4.15,0,0,0,2,.48,4.1,4.1,0,0,0,2.1-.51,4.34,4.34,0,0,0,1.44-1.34,6.09,6.09,0,0,0,.83-1.87,8.4,8.4,0,0,0,.27-2.13,6.69,6.69,0,0,0-1.23-4.29,4.06,4.06,0,0,0-3.34-1.54,4.13,4.13,0,0,0-2.16.53,4.43,4.43,0,0,0-1.44,1.38,5.72,5.72,0,0,0-.8,1.92A10,10,0,0,0,223.41,25.32Z"/></svg>