<?xml version="1.0" encoding="utf-8"?>
<!-- Generator: Adobe Illustrator 21.0.0, SVG Export Plug-In . SVG Version: 6.00 Build 0)  -->
<svg version="1.1" id="图层_1" xmlns="http://www.w3.org/2000/svg" xmlns:xlink="http://www.w3.org/1999/xlink" x="0px" y="0px"
	 viewBox="0 0 498.6 394.3" style="enable-background:new 0 0 498.6 394.3;" xml:space="preserve">
<style type="text/css">
	.st0{fill:#333333;}
</style>
<g>
	<g>
		<path class="st0" d="M373.2,229.7l-6.2-29.7h-10.2l5.5,26.2h-40.7l6.5-34.9h51.5l-1.5-7.2c-0.4-1.7-1.5-2.9-2.9-2.9h-69.3
			c-1.4,0-2.5,1.2-2.9,2.9l-1.5,7.2h16.4l-8,43h0l-0.4,1.9h58.3C371.1,236.3,373.8,233.1,373.2,229.7L373.2,229.7z"/>
		<path class="st0" d="M367.9,152.4c-0.4-1.7-1.5-2.9-2.9-2.9h-49.2c-1.4,0-2.5,1.2-2.9,2.9l-1.5,7.2h58L367.9,152.4z"/>
	</g>
	<g>
		<path class="st0" d="M209.8,172.9v8.7c7.1,3.6,11.8,13.1,8,28l-8,27.9h9.8l7.4-26C231,198.3,228.1,179.8,209.8,172.9z"/>
		<polygon class="st0" points="232.9,238.8 243.1,238.8 248.5,194.8 238.2,194.8 		"/>
		<rect x="256.5" y="194.8" class="st0" width="9.6" height="44"/>
		<path class="st0" d="M237.9,163.7h2.9l-4.2,23h0l-0.4,1.9h44.5c3.5,0,6.1-3.1,5.5-6.5h0l-2.7-12.9h-10.2l2,9.4h-26.9l2.7-14.8
			h35.2c1.4,0,2.5-1.2,2.9-2.9l1.5-7.2h-22.8V147h-9.6v6.7h-24.8l1.5,7.2C235.4,162.6,236.6,163.7,237.9,163.7z"/>
		<path class="st0" d="M286.8,224.8l-2-30l-9.6,0l2,32c0,6.6,5.4,12,12,12h1.2l1.4-7.3C287.5,229.2,287.2,227.8,286.8,224.8z"/>
		<path class="st0" d="M220.9,169.7h7.2l-6.9-17c-1-2.2-3.1-3.6-5.5-3.6h-5.9l7.5,18.2C217.9,168.8,219.3,169.7,220.9,169.7z"/>
	</g>
	<g>
		<path class="st0" d="M157.3,162l4.2-15h-9.9l-8.5,30.1h9.9l1.5-5.3h4.1c-1,8.3-4.5,23.5-16.2,31.7c0.6,2.1,1.7,5.4,2.2,7.6
			c17.4-9.6,22-29.4,23.2-39.2h3.8c-0.1,3.4-1.8,41.8-25.7,54.8c0.9,2.7,1.1,3.7,1.9,7.2c30.8-11.3,33.2-58.2,33.4-62h2.6v47.1
			c0,7.4-5,10.9-13.2,13.1l1.4,6.9h1.2c11.3,0,20.4-9.1,20.4-20.4V162H157.3z"/>
		<path class="st0" d="M143.2,190.8l-6.6,2.8v-11.5h6.2l-1.5-7.2c-0.4-1.7-1.5-2.9-2.9-2.9h-1.8V147h-9.9V172h-5.1l1.8-17.5h-8.6
			l-2.8,27.5h2l0,0h12.7v15.6l-12.2,5.1c-1.5,0.7-2.5,2.1-2.5,3.8v7.4l14.7-6.2v30.8h9.9v-34.9l2.9-1.2c2.3-1,3.7-3.2,3.7-5.7V190.8
			z"/>
	</g>
</g>
</svg>
