<?xml version="1.0" encoding="utf-8"?>
<!-- Generator: Adobe Illustrator 21.0.0, SVG Export Plug-In . SVG Version: 6.00 Build 0)  -->
<svg version="1.1" id="图层_1" xmlns="http://www.w3.org/2000/svg" xmlns:xlink="http://www.w3.org/1999/xlink" x="0px" y="0px"
	 viewBox="0 0 60 40" style="enable-background:new 0 0 60 40;" xml:space="preserve">
<style type="text/css">
	.st0{fill:#FFFFFF;}
</style>
<path class="st0" d="M60,2.1l0-0.4c0-1.2-1.3-2-2.4-1.5L30,13.8l0,0L4.6,1.2L2.9,0.4c0,0,0,0,0,0L2.4,0.2C1.3-0.4,0,0.4,0,1.6
	l0,10.3l0,0v22.2c0,0.7,0.4,1.4,1.1,1.7l8,4c1.1,0.5,2.3-0.2,2.3-1.4V17.6l13.3,6.5l5.3,2.6l5.3-2.6l13.3-6.5v20.9
	c0,1.2,1.2,1.9,2.3,1.4l8-4c0.7-0.3,1.1-1,1.1-1.8L60,2.1C60,2.1,60,2.1,60,2.1z"/>
</svg>
