<?xml version="1.0" encoding="utf-8"?>
<!-- Generator: Adobe Illustrator 21.0.0, SVG Export Plug-In . SVG Version: 6.00 Build 0)  -->
<svg version="1.1" id="图层_1" xmlns="http://www.w3.org/2000/svg" xmlns:xlink="http://www.w3.org/1999/xlink" x="0px" y="0px"
	 viewBox="0 0 498.6 394.3" style="enable-background:new 0 0 498.6 394.3;" xml:space="preserve">
<path d="M325.7,152.5l0-1.2c0-3.1-3.3-5.2-6.1-3.8l-70.3,35.2l0,0l-64.7-32.4l-4.3-2.2c0,0,0,0,0,0l-1.2-0.6
	c-2.8-1.4-6.1,0.6-6.1,3.8l0,26.6l0,0v57.6c0,1.9,1.1,3.7,2.8,4.5l20.5,10.3c2.7,1.4,5.9-0.6,5.9-3.6v-54.1l33.8,17l13.4,6.7
	l13.4-6.7l33.9-17v54.2c0,3,3.2,5,5.9,3.6l20.5-10.3c1.7-0.9,2.8-2.6,2.8-4.6v-82.8C325.7,152.7,325.7,152.6,325.7,152.5z"/>
</svg>
