<?xml version="1.0" standalone="no"?><!DOCTYPE svg PUBLIC "-//W3C//DTD SVG 1.1//EN" "http://www.w3.org/Graphics/SVG/1.1/DTD/svg11.dtd"><svg t="1558942719844" class="icon" style="" viewBox="0 0 1024 1024" version="1.1" xmlns="http://www.w3.org/2000/svg" p-id="1821" xmlns:xlink="http://www.w3.org/1999/xlink" width="32" height="32"><defs><style type="text/css"></style></defs><path d="M512 0C229.675 0 0 229.675 0 512s229.675 512 512 512 512-229.675 512-512S794.325 0 512 0zM341.333 426.667C341.333 332.416 420.011 256 512 256c91.99 0 170.667 76.416 170.667 170.667v42.666C682.667 563.584 603.989 640 512 640c-91.99 0-170.667-76.416-170.667-170.667v-42.666z m170.667 512a424.747 424.747 0 0 1-273.11-99.243c35.798-67.541 105.985-114.09 187.777-114.09h170.666c81.792 0 151.979 46.549 187.776 114.09A424.747 424.747 0 0 1 512 938.667z" fill="#70747B" p-id="1822"></path></svg>