<?xml version="1.0" standalone="no"?><!DOCTYPE svg PUBLIC "-//W3C//DTD SVG 1.1//EN" "http://www.w3.org/Graphics/SVG/1.1/DTD/svg11.dtd"><svg t="1558942674219" class="icon" style="" viewBox="0 0 1024 1024" version="1.1" xmlns="http://www.w3.org/2000/svg" p-id="1712" xmlns:xlink="http://www.w3.org/1999/xlink" width="32" height="32"><defs><style type="text/css"></style></defs><path d="M859.519 867.878a504.325 504.325 0 0 1-712.331-0.072 504.18 504.18 0 0 1 0-712.403c196.562-196.346 516.344-196.346 712.906 0.072 196.562 196.347 195.77 516.2-0.575 712.403z m-62.402-643.451c-70.463-70.391-157.192-110.913-247.088-121.493 0.287 29.725-0.36 19.145-1.584 88.313-5.47-1.44-30.949-9.141-41.53 4.102-9.14 11.444 0.289 2.663-3.67 54.485-3.743 49.734-71.183 33.468-91.047 24.615 10.58 4.678-10.365 33.324-0.72 52.901 11.084 22.384-16.842 50.022-53.333 47.215 14.682 1.152 10.22 44.625 6.405 44.193-42.249-5.11-50.022 1.007-82.77-2.016-18.21-1.727 0.288-75.645-9.645-88.384-9.932-12.596-57.795 9.429-73.845-3.959-8.925-7.413-16.699 28.574-18.714 38.003-2.735 12.811 2.447 10.868-7.413 7.701-13.387-4.246-1.512 3.67-10.149-1.727-1.943-1.224-25.047 1.727-41.6 4.606-53.838 146.108-23.177 316.544 94.07 433.646a412.557 412.557 0 0 0 582.633 0 411.91 411.91 0 0 0 0-582.201z m22.528 421.122c-4.607 10.436-29.438-2.375-37.859 3.239-8.277 5.542-1.44 32.388-8.709 42.105-4.678 6.262-76.509-1.943-81.763 3.383-6.405 6.406-5.902 36.131-5.902 84.858 0 10.22-61.034 5.758-88.744 5.758-3.959 0 3.67 28.214-6.262 42.968-6.118 9.213-27.494-1.151-36.635 3.743-10.58 5.758-4.246 41.89-5.038 43.545-0.576 1.08-32.676 2.23-44.768 2.23-4.606 0 0.72-138.766 2.015-138.766 18.57 0 39.226 3.31 40.666-1.511 1.367-4.679 2.663-58.228 2.663-126.963 0-26.775-47.071 6.405-47.071-17.13 0-23.176 0.791-53.981 0.863-75.357 0-10.149-36.995-5.974-43.544-10.293 2.015 1.296-6.262-48.942 1.583-41.17 5.326 5.255 22.456-3.238 39.802-2.95 11.948 0.216-3.167-33.9 9.069-40.378 9.716-5.182 76.94-10.436 81.979-5.542a46.352 46.352 0 0 1 1.151 1.944c0.216 2.23-0.648 34.331 0.144 41.385 0.576 5.11 48.08 2.519 74.206 3.815 19.145 1.007 26.486-0.504 46.855-0.432 40.378 0-24.111 46.063 59.81 46.063 2.232 0 5.183 43.185 3.168 43.257 35.267 0 45.128-6.982 44.84 14.035-0.216 10.868 3.31 64.92-2.52 78.164z" fill="#70747B" p-id="1713"></path></svg>