<?xml version="1.0" standalone="no"?><!DOCTYPE svg PUBLIC "-//W3C//DTD SVG 1.1//EN" "http://www.w3.org/Graphics/SVG/1.1/DTD/svg11.dtd"><svg t="1558942621533" class="icon" style="" viewBox="0 0 1024 1024" version="1.1" xmlns="http://www.w3.org/2000/svg" p-id="1603" xmlns:xlink="http://www.w3.org/1999/xlink" width="32" height="32"><defs><style type="text/css"></style></defs><path d="M586.496 207.872c0-39.424-33.28-71.424-74.496-71.424s-74.496 32-74.496 71.424c0 4.096 0.256 7.936 1.024 11.776C335.36 254.208 250.88 359.68 250.88 484.864v98.304s0 141.824-36.352 143.104c-21.76 0-38.144 16.128-38.144 35.84 0 19.968 16.64 35.84 37.376 35.84h596.736c20.736 0 37.376-16.128 37.376-35.84 0-19.968-16.64-35.84-37.376-35.84-37.376 0-37.376-142.08-37.376-142.08v-99.328c0-125.184-79.104-230.912-187.392-265.216 0.512-3.84 0.768-7.68 0.768-11.776z m37.376 625.408c0 59.392-49.664 107.264-111.872 107.264-61.696 0-111.872-47.872-111.872-107.264h223.744z" fill="#70747B" p-id="1604"></path></svg>