<?xml version="1.0" encoding="utf-8"?>
<!-- Generator: Adobe Illustrator 21.0.0, SVG Export Plug-In . SVG Version: 6.00 Build 0)  -->
<svg version="1.1" id="图层_1" xmlns="http://www.w3.org/2000/svg" xmlns:xlink="http://www.w3.org/1999/xlink" x="0px" y="0px"
	 viewBox="0 0 104 40" style="enable-background:new 0 0 104 40;" xml:space="preserve">
<style type="text/css">
	.st0{fill:#FFFFFF;}
</style>
<g>
	<g>
		<path class="st0" d="M101.3,34.3l-2.4-11.5h-4l2.1,10.1H81.3l2.5-13.5h19.9l-0.6-2.8c-0.1-0.7-0.6-1.1-1.1-1.1H75.2
			c-0.5,0-1,0.5-1.1,1.1l-0.6,2.8h6.3l-3.1,16.6h0l-0.2,0.7h22.5C100.5,36.8,101.5,35.6,101.3,34.3L101.3,34.3z"/>
		<path class="st0" d="M99.3,4.3c-0.1-0.7-0.6-1.1-1.1-1.1h-19c-0.5,0-1,0.5-1.1,1.1l-0.6,2.8h22.5L99.3,4.3z"/>
	</g>
	<g>
		<path class="st0" d="M38.1,12.3v3.4c2.7,1.4,4.5,5.1,3.1,10.8l-3.1,10.8h3.8l2.9-10.1C46.3,22.1,45.2,14.9,38.1,12.3z"/>
		<polygon class="st0" points="47,37.8 51,37.8 53.1,20.7 49.1,20.7 		"/>
		<rect x="56.1" y="20.7" class="st0" width="3.7" height="17"/>
		<path class="st0" d="M49,8.7h1.1l-1.6,8.9h0l-0.2,0.7h17.2c1.3,0,2.4-1.2,2.1-2.5h0l-1.1-5h-4l0.8,3.6H53l1-5.7h13.6
			c0.5,0,1-0.5,1.1-1.1l0.6-2.8h-8.8V2.2h-3.7v2.6h-9.6l0.6,2.8C48,8.3,48.4,8.7,49,8.7z"/>
		<path class="st0" d="M67.9,32.4l-0.8-11.6l-3.7,0l0.8,12.4c0,2.6,2.1,4.6,4.6,4.6h0.5l0.5-2.8C68.1,34.1,68,33.5,67.9,32.4z"/>
		<path class="st0" d="M42.4,11h2.8l-2.7-6.6c-0.4-0.9-1.2-1.4-2.1-1.4h-2.3l2.9,7C41.2,10.7,41.8,11,42.4,11z"/>
	</g>
	<g>
		<path class="st0" d="M17.8,8.1l1.6-5.8h-3.8l-3.3,11.6h3.8l0.6-2.1h1.6c-0.4,3.2-1.7,9.1-6.3,12.2c0.2,0.8,0.6,2.1,0.9,2.9
			c6.7-3.7,8.5-11.4,9-15.2h1.5c0,1.3-0.7,16.2-10,21.2c0.3,1.1,0.4,1.4,0.7,2.8c11.9-4.4,12.9-22.5,12.9-24h1V30
			c0,2.8-1.9,4.2-5.1,5.1l0.5,2.7H24c4.4,0,7.9-3.5,7.9-7.9V8.1H17.8z"/>
		<path class="st0" d="M12.3,19.2l-2.5,1.1v-4.5h2.4L11.6,13c-0.1-0.7-0.6-1.1-1.1-1.1H9.8V2.2H6v9.7H4l0.7-6.8H1.4L0.3,15.8H1l0,0
			H6v6.1l-4.7,2c-0.6,0.3-1,0.8-1,1.5v2.9L6,25.8v11.9h3.8V24.2l1.1-0.5c0.9-0.4,1.4-1.2,1.4-2.2V19.2z"/>
	</g>
</g>
</svg>
