<?xml version="1.0" standalone="no"?><!DOCTYPE svg PUBLIC "-//W3C//DTD SVG 1.1//EN" "http://www.w3.org/Graphics/SVG/1.1/DTD/svg11.dtd"><svg t="1558942370336" class="icon" style="" viewBox="0 0 1024 1024" version="1.1" xmlns="http://www.w3.org/2000/svg" p-id="1234" xmlns:xlink="http://www.w3.org/1999/xlink" width="32" height="32"><defs><style type="text/css"></style></defs><path d="M554.496 437.248c-17.408 0-31.744-14.336-31.744-31.744V143.36c0-17.408 14.336-31.744 31.744-31.744h292.864c17.408 0 31.744 14.336 31.744 31.744v261.632c0 8.704-3.072 16.896-9.216 22.528-6.144 5.632-14.336 9.216-22.528 9.216h-292.864v0.512z m62.976-261.632c-16.896 0-30.72 13.824-30.72 30.72v135.68c0 16.896 13.824 30.72 30.72 30.72h166.912c16.896 0 30.72-13.824 30.72-30.72V206.336c0-16.896-13.824-30.72-30.72-30.72h-166.912zM155.136 912.384c-17.408 0-31.744-14.336-31.744-31.744v-261.632c0-17.408 14.336-31.744 31.744-31.744h292.864c17.408 0 31.744 14.336 31.744 31.744V880.64c0 17.408-14.336 31.744-31.744 31.744H155.136z m62.464-261.632c-16.896 0-30.72 13.824-30.72 30.72v135.68c0 16.896 13.824 30.72 30.72 30.72h166.912c16.896 0 30.72-13.824 30.72-30.72v-135.68c0-16.896-13.824-30.72-30.72-30.72H217.6zM111.104 339.456h64.512v-10.752c0-119.296 93.184-217.088 208.384-217.088h21.504V184.32H384c-78.336 0-141.312 65.024-141.824 145.92v9.216h55.808L204.288 448.512 111.104 339.456z m507.392 572.928V839.68h21.504c77.824 0 140.8-65.024 141.312-145.92v-9.216h-55.808l93.184-109.056 93.184 109.056h-64.512v10.752c0 119.296-93.184 217.088-208.384 217.088h-20.48z m0 0" fill="#70747B" p-id="1235"></path><path d="M154.112 613.376h293.376v267.776H154.112z" fill="#70747B" p-id="1236"></path></svg>