<?xml version="1.0" standalone="no"?>
<!DOCTYPE svg PUBLIC "-//W3C//DTD SVG 1.1//EN" "http://www.w3.org/Graphics/SVG/1.1/DTD/svg11.dtd" >
<!--
2013-9-30: Created.
-->
<svg>
<metadata>
Created by iconfont
</metadata>
<defs>

<font id="font_family" horiz-adv-x="1024" >
  <font-face
    font-family="font_family"
    font-weight="500"
    font-stretch="normal"
    units-per-em="1024"
    ascent="896"
    descent="-128"
  />
    <missing-glyph />
    
    <glyph glyph-name="qiehuanxitong" unicode="&#58881;" d="M554.496 458.752c-17.408 0-31.744 14.336-31.744 31.744V752.64c0 17.408 14.336 31.744 31.744 31.744h292.864c17.408 0 31.744-14.336 31.744-31.744v-261.632c0-8.704-3.072-16.896-9.216-22.528-6.144-5.632-14.336-9.216-22.528-9.216h-292.864v-0.512z m62.976 261.632c-16.896 0-30.72-13.824-30.72-30.72v-135.68c0-16.896 13.824-30.72 30.72-30.72h166.912c16.896 0 30.72 13.824 30.72 30.72V689.664c0 16.896-13.824 30.72-30.72 30.72h-166.912zM155.136-16.384000000000015c-17.408 0-31.744 14.336-31.744 31.744v261.632c0 17.408 14.336 31.744 31.744 31.744h292.864c17.408 0 31.744-14.336 31.744-31.744V15.360000000000014c0-17.408-14.336-31.744-31.744-31.744H155.136z m62.464 261.632c-16.896 0-30.72-13.824-30.72-30.72v-135.68c0-16.896 13.824-30.72 30.72-30.72h166.912c16.896 0 30.72 13.824 30.72 30.72v135.68c0 16.896-13.824 30.72-30.72 30.72H217.6zM111.104 556.544h64.512v10.752c0 119.296 93.184 217.088 208.384 217.088h21.504V711.6800000000001H384c-78.336 0-141.312-65.024-141.824-145.92v-9.216h55.808L204.288 447.488 111.104 556.544z m507.392-572.928V56.32000000000005h21.504c77.824 0 140.8 65.024 141.312 145.92v9.216h-55.808l93.184 109.056 93.184-109.056h-64.512v-10.752c0-119.296-93.184-217.088-208.384-217.088h-20.48z m0 0M154.112 282.624h293.376v-267.776H154.112z"  horiz-adv-x="1024" />

    
    <glyph glyph-name="qiehuanyonghu" unicode="&#58882;" d="M759 561c0 137-111 248-248 248S263 698 263 561c0-82.8 40.6-156.2 103-201.2-0.4-0.2-0.7-0.3-0.9-0.4-44.7-18.9-84.8-46-119.3-80.6-34.5-34.5-61.5-74.7-80.4-119.5C146.9 115.5 137 69 136 21.200000000000045c-0.1-4.5 3.5-8.2 8-8.2h59.9c4.3 0 7.9 3.5 8 7.8 2 77.2 32.9 149.5 87.6 204.3C356 281.79999999999995 431 313 511 313c137 0 248 111 248 248zM511 389c-95 0-172 77-172 172s77 172 172 172 172-77 172-172-77-172-172-172z m105-221h264c4.4 0 8 3.6 8 8v56c0 4.4-3.6 8-8 8H703.5l47.2 60.1c1.1 1.4 1.7 3.2 1.7 4.9 0 4.4-3.6 8-8 8h-72.6c-4.9 0-9.5-2.3-12.6-6.1l-68.5-87.1c-4.4-5.6-6.8-12.6-6.8-19.8 0.1-17.7 14.4-32 32.1-32z m240-64H592c-4.4 0-8-3.6-8-8v-56c0-4.4 3.6-8 8-8h176.5l-47.2-60.1c-1.1-1.4-1.7-3.2-1.7-4.9 0-4.4 3.6-8 8-8h72.6c4.9 0 9.5 2.3 12.6 6.1l68.5 87.1c4.4 5.6 6.8 12.6 6.8 19.8-0.1 17.7-14.4 32-32.1 32z"  horiz-adv-x="1024" />

    
    <glyph glyph-name="xiaoxi" unicode="&#58883;" d="M586.496 688.1279999999999c0 39.424-33.28 71.424-74.496 71.424s-74.496-32-74.496-71.424c0-4.096 0.256-7.936 1.024-11.776C335.36 641.792 250.88 536.3199999999999 250.88 411.136v-98.304s0-141.824-36.352-143.104c-21.76 0-38.144-16.128-38.144-35.84 0-19.968 16.64-35.84 37.376-35.84h596.736c20.736 0 37.376 16.128 37.376 35.84 0 19.968-16.64 35.84-37.376 35.84-37.376 0-37.376 142.08-37.376 142.08v99.328c0 125.184-79.104 230.912-187.392 265.216 0.512 3.84 0.768 7.68 0.768 11.776z m37.376-625.408c0-59.392-49.664-107.264-111.872-107.264-61.696 0-111.872 47.872-111.872 107.264h223.744z"  horiz-adv-x="1024" />

    
    <glyph glyph-name="xitongyuyan" unicode="&#58884;" d="M859.519 28.121999999999957a504.325 504.325 0 0 0-712.331 0.072 504.18 504.18 0 0 0 0 712.403c196.562 196.346 516.344 196.346 712.906-0.072 196.562-196.347 195.77-516.2-0.575-712.403z m-62.402 643.451c-70.463 70.391-157.192 110.913-247.088 121.493 0.287-29.725-0.36-19.145-1.584-88.313-5.47 1.44-30.949 9.141-41.53-4.102-9.14-11.444 0.289-2.663-3.67-54.485-3.743-49.734-71.183-33.468-91.047-24.615 10.58-4.678-10.365-33.324-0.72-52.901 11.084-22.384-16.842-50.022-53.333-47.215 14.682-1.152 10.22-44.625 6.405-44.193-42.249 5.11-50.022-1.007-82.77 2.016-18.21 1.727 0.288 75.645-9.645 88.384-9.932 12.596-57.795-9.429-73.845 3.959-8.925 7.413-16.699-28.574-18.714-38.003-2.735-12.811 2.447-10.868-7.413-7.701-13.387 4.246-1.512-3.67-10.149 1.727-1.943 1.224-25.047-1.727-41.6-4.606-53.838-146.108-23.177-316.544 94.07-433.646a412.557 412.557 0 0 1 582.633 0 411.91 411.91 0 0 1 0 582.201z m22.528-421.122c-4.607-10.436-29.438 2.375-37.859-3.239-8.277-5.542-1.44-32.388-8.709-42.105-4.678-6.262-76.509 1.943-81.763-3.383-6.405-6.406-5.902-36.131-5.902-84.858 0-10.22-61.034-5.758-88.744-5.758-3.959 0 3.67-28.214-6.262-42.968-6.118-9.213-27.494 1.151-36.635-3.743-10.58-5.758-4.246-41.89-5.038-43.545-0.576-1.08-32.676-2.23-44.768-2.23-4.606 0 0.72 138.766 2.015 138.766 18.57 0 39.226-3.31 40.666 1.511 1.367 4.679 2.663 58.228 2.663 126.963 0 26.775-47.071-6.405-47.071 17.13 0 23.176 0.791 53.981 0.863 75.357 0 10.149-36.995 5.974-43.544 10.293 2.015-1.296-6.262 48.942 1.583 41.17 5.326-5.255 22.456 3.238 39.802 2.95 11.948-0.216-3.167 33.9 9.069 40.378 9.716 5.182 76.94 10.436 81.979 5.542a46.352 46.352 0 0 0 1.151-1.944c0.216-2.23-0.648-34.331 0.144-41.385 0.576-5.11 48.08-2.519 74.206-3.815 19.145-1.007 26.486 0.504 46.855 0.432 40.378 0-24.111-46.063 59.81-46.063 2.232 0 5.183-43.185 3.168-43.257 35.267 0 45.128 6.982 44.84-14.035-0.216-10.868 3.31-64.92-2.52-78.164z"  horiz-adv-x="1024" />

    
    <glyph glyph-name="morentouxiang" unicode="&#58885;" d="M512 896C229.675 896 0 666.325 0 384s229.675-512 512-512 512 229.675 512 512S794.325 896 512 896zM341.333 469.333C341.333 563.5840000000001 420.011 640 512 640c91.99 0 170.667-76.416 170.667-170.667v-42.666C682.667 332.41600000000005 603.989 256 512 256c-91.99 0-170.667 76.416-170.667 170.667v42.666z m170.667-512a424.747 424.747 0 0 0-273.11 99.243c35.798 67.541 105.985 114.09 187.777 114.09h170.666c81.792 0 151.979-46.549 187.776-114.09A424.747 424.747 0 0 0 512-42.66700000000003z"  horiz-adv-x="1024" />

    
    <glyph glyph-name="jichuxinxi" unicode="&#58906;" d="M109.714286 822.857143a36.571429 36.571429 0 0 1-36.571429-36.571429V530.285714a36.571429 36.571429 0 0 1 36.571429-36.571428H365.714286a36.571429 36.571429 0 0 1 36.571428 36.571428V786.285714A36.571429 36.571429 0 0 1 365.714286 822.857143H109.714286z m0 73.142857H365.714286a109.714286 109.714286 0 0 0 109.714285-109.714286V530.285714A109.714286 109.714286 0 0 0 365.714286 420.571429H109.714286A109.714286 109.714286 0 0 0 0 530.285714V786.285714A109.714286 109.714286 0 0 0 109.714286 896z m0-621.714286A36.571429 36.571429 0 0 1 73.142857 237.71428600000002v-256a36.571429 36.571429 0 0 1 36.571429-36.571429H365.714286a36.571429 36.571429 0 0 1 36.571428 36.571429V237.71428600000002a36.571429 36.571429 0 0 1-36.571428 36.571428H109.714286z m0 73.142857H365.714286A109.714286 109.714286 0 0 0 475.428571 237.71428600000002v-256A109.714286 109.714286 0 0 0 365.714286-128H109.714286A109.714286 109.714286 0 0 0 0-18.285713999999984V237.71428600000002a109.714286 109.714286 0 0 0 109.714286 109.714285zM658.285714 822.857143a36.571429 36.571429 0 0 1-36.571428-36.571429V530.285714a36.571429 36.571429 0 0 1 36.571428-36.571428h256A36.571429 36.571429 0 0 1 950.857143 530.285714V786.285714a36.571429 36.571429 0 0 1-36.571429 36.571429H658.285714z m0 73.142857h256A109.714286 109.714286 0 0 0 1024 786.285714V530.285714a109.714286 109.714286 0 0 0-109.714286-109.714285H658.285714A109.714286 109.714286 0 0 0 548.571429 530.285714V786.285714A109.714286 109.714286 0 0 0 658.285714 896z m0-621.714286a36.571429 36.571429 0 0 1-36.571428-36.571428v-256a36.571429 36.571429 0 0 1 36.571428-36.571429h256a36.571429 36.571429 0 0 1 36.571429 36.571429V237.71428600000002a36.571429 36.571429 0 0 1-36.571429 36.571428H658.285714z m0 73.142857h256A109.714286 109.714286 0 0 0 1024 237.71428600000002v-256a109.714286 109.714286 0 0 0-109.714286-109.714286H658.285714a109.714286 109.714286 0 0 0-109.714285 109.714286V237.71428600000002A109.714286 109.714286 0 0 0 658.285714 347.42857100000003z"  horiz-adv-x="1024" />

    
    <glyph glyph-name="rizhiguanli" unicode="&#58908;" d="M73.142857 822.857143v-731.428572h877.714286V822.857143H73.142857z m0 73.142857h877.714286a73.142857 73.142857 0 0 0 73.142857-73.142857v-731.428572a73.142857 73.142857 0 0 0-73.142857-73.142857H73.142857a73.142857 73.142857 0 0 0-73.142857 73.142857V822.857143a73.142857 73.142857 0 0 0 73.142857 73.142857z m73.142857-1024a36.571429 36.571429 0 1 0 0 73.142857h731.428572a36.571429 36.571429 0 1 0 0-73.142857H146.285714z m151.478857 412.16a36.571429 36.571429 0 0 0-35.108571-26.624H141.531429a36.571429 36.571429 0 1 0 0 73.142857h93.330285l43.52 153.892572a36.571429 36.571429 0 0 0 68.608 4.900571l84.845715-190.171429 128.292571 434.249143a36.571429 36.571429 0 0 0 68.242286 4.973715l147.382857-319.341715h90.697143a36.571429 36.571429 0 1 0 0-73.142857h-114.102857a36.571429 36.571429 0 0 0-33.206858 21.211429l-116.443428 252.342857L473.965714 183.588571a36.571429 36.571429 0 0 0-68.534857-4.534857l-84.114286 188.489143-23.552-83.309714z"  horiz-adv-x="1024" />

    
    <glyph glyph-name="shixiaoguanli" unicode="&#58909;" d="M524.369189 347.57485699999995L293.384046 112.63999999999999a36.571429 36.571429 0 0 0-52.150857 51.273143l236.032 240.054857V688.274286a36.571429 36.571429 0 1 0 73.142857 0v-267.483429h242.029714a36.571429 36.571429 0 0 0 0-73.142857H524.369189zM248.18176-54.85714299999995a512 512 0 1 0 527.725714 0H877.795474a36.571429 36.571429 0 1 0 0-73.142857H146.366903a36.571429 36.571429 0 1 0 0 73.142857h101.814857zM512.081189-54.85714299999995A438.857143 438.857143 0 1 1 512.081189 822.857143a438.857143 438.857143 0 0 1 0-877.714286z"  horiz-adv-x="1024" />

    
    <glyph glyph-name="kucunguanli" unicode="&#58910;" d="M924.330667 513.7066669999999A102.4 102.4 0 0 0 989.866667 418.133333v-443.733333a102.4 102.4 0 0 0-102.4-102.4h-750.933334A102.4 102.4 0 0 0 34.133333-25.600000000000023V418.133333a102.4 102.4 0 0 0 78.916267 99.669334l113.664 259.003733a102.4 102.4 0 0 0 127.658667 55.432533l222.549333-78.097066c32.085333-11.332267 55.0912-37.000533 64.170667-67.3792l215.4496-77.4144A102.4 102.4 0 0 0 924.330667 513.7066669999999z m-69.154134 6.826666a34.133333 34.133333 0 0 1-21.7088 24.576L636.5184 615.8335999999999 596.718933 520.5333330000001h258.4576z m-666.350933 0h333.960533l51.677867 123.835734 0.682667 1.8432a34.133333 34.133333 0 0 1-20.8896 43.485866L331.776 767.863467a34.133333 34.133333 0 0 1-42.530133-18.500267L188.8256 520.5333330000001zM102.4 418.133333v-443.733333a34.133333 34.133333 0 0 1 34.133333-34.133333h750.933334a34.133333 34.133333 0 0 1 34.133333 34.133333V418.133333a34.133333 34.133333 0 0 1-34.133333 34.133334h-750.933334A34.133333 34.133333 0 0 1 102.4 418.133333z m207.325867-252.450133a34.133333 34.133333 0 0 0 0 68.266667h405.367466a34.133333 34.133333 0 1 0 0-68.266667H309.725867z"  horiz-adv-x="1024" />

    
    <glyph glyph-name="peisongguanli" unicode="&#58916;" d="M701.001143 303.68914299999994l-50.249143 50.249143a36.571429 36.571429 0 1 0 51.712 51.712l112.859429-112.859429a37.302857 37.302857 0 0 0 1.170285-1.170286 36.571429 36.571429 0 0 0 0-51.712L703.634286 127.04914299999996a36.571429 36.571429 0 0 0-51.712 51.712l51.785143 51.785143H512a36.571429 36.571429 0 1 0 0 73.142857h189.001143z m209.92 205.458286a37.156571 37.156571 0 0 0-1.316572 1.974857l-3.584 5.705143A36.498286 36.498286 0 0 1 877.714286 530.285714H146.285714a36.571429 36.571429 0 0 1-29.549714-15.067428l-2.56-4.096a36.425143 36.425143 0 0 1-4.388571-17.408l-0.073143-44.324572a36.571429 36.571429 0 1 0-73.142857 0V493.714286c0 22.893714 7.021714 44.178286 19.017142 61.805714L228.790857 836.608A109.714286 109.714286 0 0 0 322.267429 888.832H701.44a109.714286 109.714286 0 0 0 93.403429-52.224l171.593142-278.308571c13.165714-18.139429 20.992-40.448 20.992-64.585143v-512A109.714286 109.714286 0 0 0 877.714286-128H146.285714a109.714286 109.714286 0 0 0-109.714285 109.714286v81.481143a36.571429 36.571429 0 1 0 73.142857 0V-18.285713999999984a36.571429 36.571429 0 0 1 36.571428-36.571429h731.428572a36.571429 36.571429 0 0 1 36.571428 36.571429v512a36.425143 36.425143 0 0 1-3.364571 15.36zM171.081143 603.4285709999999h681.618286l-120.100572 194.852572a36.571429 36.571429 0 0 1-31.158857 17.408H322.267429a36.571429 36.571429 0 0 1-31.158858-17.408L171.081143 603.4285709999999zM73.142857 288.91428599999995a36.571429 36.571429 0 0 0 0 73.142857h312.905143a36.571429 36.571429 0 1 0 0-73.142857H73.142857z m0-131.510857a36.571429 36.571429 0 1 0 0 73.142857h159.597714a36.571429 36.571429 0 1 0 0-73.142857H73.142857z"  horiz-adv-x="1024" />

    
    <glyph glyph-name="peizhizhongxin" unicode="&#58921;" d="M109.210629 676.565734H36.581277a36.570671 36.570671 0 0 0 0 73.141342h72.629352a182.853355 182.853355 0 1 0 0-73.141342z m179.196288-73.141342a109.712013 109.712013 0 1 1 0 219.424026 109.712013 109.712013 0 0 1 0-219.424026zM577.827208 676.565734a36.570671 36.570671 0 1 0 0 73.141342h401.472826a36.570671 36.570671 0 1 0 0-73.141342h-401.545967z m-468.616579-658.272079H36.581277a36.570671 36.570671 0 1 0 0 73.141342h72.629352a182.853355 182.853355 0 1 0 0-73.141342z m179.196288-73.141342a109.712013 109.712013 0 1 1 0 219.424026 109.712013 109.712013 0 0 1 0-219.424026zM577.827208 18.293654999999944a36.570671 36.570671 0 1 0 0 73.141342h401.472826a36.570671 36.570671 0 1 0 0-73.141342h-401.545967z m328.843474 402.277382h72.629352a36.570671 36.570671 0 0 0 0-73.141342h-72.629352a182.853355 182.853355 0 1 0 0 73.141342z m-179.196288 73.141342a109.712013 109.712013 0 1 1 0-219.424026 109.712013 109.712013 0 0 1 0 219.424026z m-289.420291-73.141342a36.570671 36.570671 0 1 0 0-73.141342H36.581277a36.570671 36.570671 0 0 0 0 73.141342h401.472826z"  horiz-adv-x="1024" />

    
    <glyph glyph-name="iflow-nanshi" unicode="&#58911;" d="M350.211679 289.002604c46.078848-32.328335 102.031735-51.271861 162.153661-51.271862 60.048784 0 115.855389 18.870385 161.861096 51.052438 234.490138-68.24058 328.695783-275.595396 248.533215-348.297578-96.546158-87.696093-713.856439-94.790773-818.301828 0-86.672119 78.626606 10.239744 281.446678 245.753856 348.517002zM512.36534 310.871771c-158.277186 0-286.712832 130.922441-286.712832 292.564115s128.435646 292.564114 286.712832 292.564114c158.350327 0 286.712832-130.922441 286.712832-292.564114S670.715667 310.871771 512.36534 310.871771z"  horiz-adv-x="1024" />

    
    <glyph glyph-name="iflow-nvshi" unicode="&#58912;" d="M350.211679 289.002604c46.078848-32.328335 102.031735-51.271861 162.153661-51.271862 60.048784 0 115.855389 18.870385 161.861096 51.052438 234.490138-68.24058 328.695783-275.595396 248.533215-348.297578-96.546158-87.696093-713.856439-94.790773-818.301828 0-86.672119 78.626606 10.239744 281.446678 245.753856 348.517002zM512.36534 310.871771c-158.277186 0-286.712832 130.922441-286.712832 292.564115s128.435646 292.564114 286.712832 292.564114c158.350327 0 286.712832-130.922441 286.712832-292.564114S670.715667 310.871771 512.36534 310.871771z"  horiz-adv-x="1024" />

    
    <glyph glyph-name="iflow-sousuo" unicode="&#58915;" d="M741.853867 275.797333c98.5088 133.461333 83.5584 317.44-37.888 434.858667-138.103467 133.597867-362.9056 133.597867-501.077334 0a329.864533 329.864533 0 0 1 0-478.139733c122.6752-118.5792 316.347733-133.256533 456.157867-36.795734l48.401067 33.3824 34.4064 46.6944z m-586.410667-92.3648a398.1312 398.1312 0 0 0 0 576.375467c164.590933 159.061333 431.445333 159.061333 595.968 0 147.6608-142.882133 162.816-365.3632 45.397333-524.561067 1.4336-1.160533 2.8672-2.4576 4.232534-3.754666l198.656-192.1024a66.3552 66.3552 0 0 0 0-96.119467 71.953067 71.953067 0 0 0-99.328 0l-198.656 192.170667-3.8912 4.096c-164.522667-113.595733-394.581333-98.986667-542.3104 43.895466z"  horiz-adv-x="1024" />

    
    <glyph glyph-name="iflow-xuanzeshenpiren" unicode="&#58917;" d="M350.211679 289.002604c46.078848-32.328335 102.031735-51.271861 162.153661-51.271862 60.048784 0 115.855389 18.870385 161.861096 51.052438 234.490138-68.24058 328.695783-275.595396 248.533215-348.297578-96.546158-87.696093-713.856439-94.790773-818.301828 0-86.672119 78.626606 10.239744 281.446678 245.753856 348.517002zM512.36534 310.871771c-158.277186 0-286.712832 130.922441-286.712832 292.564115s128.435646 292.564114 286.712832 292.564114c158.350327 0 286.712832-130.922441 286.712832-292.564114S670.715667 310.871771 512.36534 310.871771z"  horiz-adv-x="1024" />

    
    <glyph glyph-name="iflow-yiwanchengjiedian" unicode="&#58918;" d="M512 384m-494.933333 0a494.933333 494.933333 0 1 1 989.866666 0 494.933333 494.933333 0 1 1-989.866666 0ZM512 384m-409.6 0a409.6 409.6 0 1 1 819.2 0 409.6 409.6 0 1 1-819.2 0ZM504.251733 313.685333l186.094934 228.420267a34.133333 34.133333 0 0 0 52.906666-43.144533l-210.602666-258.4576a34.133333 34.133333 0 0 0-51.2-1.9456l-141.073067 148.48a34.133333 34.133333 0 0 0 49.493333 47.035733l114.3808-120.388267z"  horiz-adv-x="1024" />

    
    <glyph glyph-name="iflow-zuzhijiagou" unicode="&#58919;" d="M146.285714 896v-1024H73.142857a73.142857 73.142857 0 0 0-73.142857 73.142857V822.857143a73.142857 73.142857 0 0 0 73.142857 73.142857h73.142857z m36.571429 0H950.857143a73.142857 73.142857 0 0 0 73.142857-73.142857v-877.714286a73.142857 73.142857 0 0 0-73.142857-73.142857H182.857143V896z m402.505143-512c79.140571 0 143.36 65.462857 143.36 146.285714s-64.219429 146.285714-143.36 146.285715c-79.213714 0-143.36-65.462857-143.36-146.285715s64.146286-146.285714 143.36-146.285714z m-203.995429-252.635429c52.224-55.296 360.886857-51.2 409.161143 0 48.274286 51.126857-29.988571 216.356571-205.165714 216.064-175.177143-0.292571-256.219429-160.768-203.995429-216.064z"  horiz-adv-x="1024" />

    
    <glyph glyph-name="iflow-Shape" unicode="&#58920;" d="M1365.333333 810.666667H0l682.666667-853.333334z"  horiz-adv-x="1365" />

    
    <glyph glyph-name="iflow-zuzhiwenjian" unicode="&#58922;" d="M0 896h512.256l85.333333-85.333333H1194.666667v-170.666667H0zM0 640h1194.666667v-768H0z"  horiz-adv-x="1194" />

    
    <glyph glyph-name="iflow-dangqianjiedian" unicode="&#58923;" d="M512 384m-494.933333 0a494.933333 494.933333 0 1 1 989.866666 0 494.933333 494.933333 0 1 1-989.866666 0ZM512 384m-409.6 0a409.6 409.6 0 1 1 819.2 0 409.6 409.6 0 1 1-819.2 0ZM673.6896 364.2368a34.133333 34.133333 0 1 0 0-68.266667h-179.643733a34.133333 34.133333 0 0 0-34.133334 34.133334v179.643733a34.133333 34.133333 0 0 0 68.266667 0v-145.5104h145.5104z"  horiz-adv-x="1024" />

    
    <glyph glyph-name="iflow-weikaishijiedian1" unicode="&#58924;" d="M616.311467 443.938133h14.472533v-43.008L716.8 477.832533 630.784 554.666667v-50.9952h-14.472533c-75.639467 0-118.306133-58.436267-155.921067-109.9776-33.860267-46.3872-63.0784-86.459733-110.318933-86.459734H307.2V247.466667h42.871467c75.6736 0 118.272 58.436267 155.921066 110.011733 33.860267 46.3872 63.112533 86.459733 110.318934 86.459733zM410.692267 384l9.1136 14.609067c7.4752 12.049067 15.36 24.7808 23.927466 37.444266-25.258667 28.945067-55.739733 50.346667-96.494933 50.346667H307.2v-65.672533h40.0384c25.3952 0 45.192533-14.677333 63.453867-36.727467z m221.252266-81.5104V349.866667L716.8 264.533333 631.978667 179.2v56.900267h-14.301867c-45.056 0-78.267733 23.688533-105.6768 55.0912 10.581333 14.609067 20.138667 29.354667 29.047467 43.076266l6.144 9.454934c20.241067-24.610133 42.052267-41.233067 70.485333-41.233067h14.267733zM512-93.866667c263.918933 0 477.866667 213.947733 477.866667 477.866667S775.918933 861.866667 512 861.866667 34.133333 647.918933 34.133333 384s213.947733-477.866667 477.866667-477.866667z m0-34.133333C229.239467-128 0 101.239467 0 384 0 666.760533 229.239467 896 512 896c282.760533 0 512-229.239467 512-512 0-282.760533-229.239467-512-512-512z"  horiz-adv-x="1024" />

    
    <glyph glyph-name="iflow-bohui" unicode="&#58925;" d="M512 384m-477.866667 0a477.866667 477.866667 0 1 1 955.733334 0 477.866667 477.866667 0 1 1-955.733334 0ZM512 384m-409.6 0a409.6 409.6 0 1 1 819.2 0 409.6 409.6 0 1 1-819.2 0ZM512 432.264533l96.529067 96.5632a34.133333 34.133333 0 0 0 48.298666-48.298666L560.264533 384l96.5632-96.529067a34.133333 34.133333 0 0 0-48.298666-48.298666L512 335.735467l-96.529067-96.5632a34.133333 34.133333 0 0 0-48.298666 48.298666L463.735467 384l-96.5632 96.529067a34.133333 34.133333 0 0 0 48.298666 48.298666L512 432.264533z"  horiz-adv-x="1024" />

    
    <glyph glyph-name="daneng-xingxing" unicode="&#58901;" d="M536.97561 53.073171L206.673171-120.582244 269.736585 247.233561 2.497561 507.704195 371.811902 561.326829 536.97561 896l165.163707-334.648195 369.289366-53.64761-267.239024-260.49561 63.08839-367.790829z"  horiz-adv-x="1073" />

    
    <glyph glyph-name="daneng-bobao" unicode="&#58902;" d="M317.724 232.562H168.107c-30.01 0-54.33 25.458-54.33 56.889V479.09c0 31.402 24.32 56.889 54.33 56.889H317.61l187.875 169.927a25.572 25.572 0 0 0 42.724-18.944v-605.383a25.572 25.572 0 0 0-42.724-18.944l-187.79 169.927zM805.12 123.819a26.852 26.852 0 0 0-21.504-10.923c-15.076 0-27.307 12.8-27.307 28.644 0 9.045 3.983 17.095 10.24 22.357 54.784 55.182 88.89 132.779 88.89 218.71 0 88.177-35.926 167.594-93.299 223.032l0.029 0.029a29.24 29.24 0 0 0-8.249 20.508c0 15.815 12.231 28.644 27.335 28.644 8.96 0 16.896-4.495 21.902-11.464 65.65-65.62 106.582-158.18 106.582-260.75 0-101.546-40.107-193.308-104.619-258.787zM667.392 557.796A271.929 271.929 0 0 0 729.202 384a271.872 271.872 0 0 0-62.237-174.28 26.965 26.965 0 0 0-22.414-12.23c-15.075 0-27.335 12.8-27.335 28.615 0 8.505 3.527 16.128 9.102 21.362A213.618 213.618 0 0 1 674.901 384a213.618 213.618 0 0 1-49.123 137.244 29.212 29.212 0 0 0-8.534 20.765c0 15.843 12.232 28.672 27.336 28.672a27.022 27.022 0 0 0 22.84-12.914z"  horiz-adv-x="1024" />

    
    <glyph glyph-name="cp-jinrifacheliang" unicode="&#58930;" d="M512-128C229.241263-128 0 101.241263 0 384S229.241263 896 512 896s512-229.241263 512-512-229.241263-512-512-512z m96.013474 350.315789a53.894737 53.894737 0 0 1 104.394105 0H781.473684a26.947368 26.947368 0 0 1 26.947369 26.947369v86.447158a26.947368 26.947368 0 0 1-5.470316 16.303158L732.698947 444.631579a26.947368 26.947368 0 0 1-21.477052 10.671158h-57.344V545.684211a26.947368 26.947368 0 0 1-26.947369 26.947368h-163.085473a26.947368 26.947368 0 0 1 0-53.894737h136.138105v-90.381474a26.947368 26.947368 0 0 1 26.947368-26.947368h70.925474L754.526316 326.656V276.210526h-58.664421a53.679158 53.679158 0 0 1-35.651369 13.473685c-13.662316 0-26.138947-5.093053-35.651368-13.473685h-144.276211a53.679158 53.679158 0 0 1-35.651368 13.473685c-13.662316 0-26.138947-5.093053-35.651368-13.473685H350.315789v30.31579a26.947368 26.947368 0 0 1-53.894736 0V249.263158a26.947368 26.947368 0 0 1 26.947368-26.947369h69.066105a53.894737 53.894737 0 0 1 104.394106 0h111.184842zM323.368421 424.421053h134.736842a26.947368 26.947368 0 0 1 0 53.894736h-134.736842a26.947368 26.947368 0 0 1 0-53.894736z m53.894737-80.842106h46.699789a26.947368 26.947368 0 1 1 0 53.894737H377.263158a26.947368 26.947368 0 0 1 0-53.894737z m67.368421-134.736842a26.947368 26.947368 0 1 0 0 53.894737 26.947368 26.947368 0 0 0 0-53.894737z m215.578947 0a26.947368 26.947368 0 1 0 0 53.894737 26.947368 26.947368 0 0 0 0-53.894737z"  horiz-adv-x="1024" />

    
    <glyph glyph-name="cp-jinripeisongliang" unicode="&#58931;" d="M512-128C229.241263-128 0 101.241263 0 384S229.241263 896 512 896s512-229.241263 512-512-229.241263-512-512-512z m139.452632 727.578947l-183.242106-126.464-56.72421 74.617264a26.947368 26.947368 0 0 1-38.157474 4.850526l-120.535579-95.124211a26.947368 26.947368 0 1 1 33.360842-42.307368l99.031579 78.120421 55.727158-73.296842a26.947368 26.947368 0 0 1 36.756211-5.847579l203.964631 140.8-4.311579-16.896a26.947368 26.947368 0 1 1 52.277895-13.231158l24.090947 95.124211A26.947368 26.947368 0 0 1 727.578947 653.473684h-96.444631a26.947368 26.947368 0 0 1 0-53.894737h20.318316z m-324.527158-210.83621v-146.243369a26.947368 26.947368 0 0 1 53.894737 0v146.243369a26.947368 26.947368 0 1 1-53.894737 0z m168.771368-49.313684v-96.929685a26.947368 26.947368 0 0 1 53.894737 0v96.902737a26.947368 26.947368 0 1 1-53.894737 0z m168.771369 96.875789v-193.805474a26.947368 26.947368 0 0 1 53.894736 0v193.805474a26.947368 26.947368 0 1 1-53.894736 0z"  horiz-adv-x="1024" />

    
    <glyph glyph-name="cp-jinriqiandanliang" unicode="&#58932;" d="M512-128C229.241263-128 0 101.241263 0 384S229.241263 896 512 896s512-229.241263 512-512-229.241263-512-512-512z m161.684211 700.631579v-294.804211l-32.013474 25.222737a26.947368 26.947368 0 0 1-36.190316-2.586947l-37.214316-39.073684-37.214316 39.073684a26.947368 26.947368 0 0 1-39.046736 0l-37.187369-39.073684-37.241263 39.073684a26.947368 26.947368 0 0 1-36.325053 2.479158L350.315789 278.285474V572.631579h323.368422zM395.587368 245.436632l39.693474-41.714527a26.947368 26.947368 0 0 1 39.01979 0l37.214315 39.073684 37.241264-39.073684a26.947368 26.947368 0 0 1 39.019789 0l39.801263 41.822316 56.373895-44.409263A26.947368 26.947368 0 0 1 727.578947 222.315789V599.578947a26.947368 26.947368 0 0 1-26.947368 26.947369H323.368421a26.947368 26.947368 0 0 1-26.947368-26.947369v-377.263158a26.947368 26.947368 0 0 1 43.735579-21.072842l55.403789 44.193685zM404.210526 518.736842a26.947368 26.947368 0 0 1 0-53.894737h161.684211a26.947368 26.947368 0 0 1 0 53.894737h-161.684211z m0-80.842105a26.947368 26.947368 0 0 1 0-53.894737h80.842106a26.947368 26.947368 0 0 1 0 53.894737h-80.842106z"  horiz-adv-x="1024" />

    
    <glyph glyph-name="waixiao-baobiaoguanli" unicode="&#58903;" d="M375.466667 827.733333v-68.266666h273.066666V827.733333h204.8a136.533333 136.533333 0 0 0 136.533334-136.533333v-682.666667a136.533333 136.533333 0 0 0-136.533334-136.533333H170.666667a136.533333 136.533333 0 0 0-136.533334 136.533333V691.2a136.533333 136.533333 0 0 0 136.533334 136.533333h204.8zM170.666667 759.466667a68.266667 68.266667 0 0 1-68.266667-68.266667v-682.666667a68.266667 68.266667 0 0 1 68.266667-68.266666h682.666666a68.266667 68.266667 0 0 1 68.266667 68.266666V691.2a68.266667 68.266667 0 0 1-68.266667 68.266667H170.666667zM238.933333 213.33333300000004m34.133334 0l477.866666 0q34.133333 0 34.133334-34.133333l0 0q0-34.133333-34.133334-34.133333l-477.866666 0q-34.133333 0-34.133334 34.133333l0 0q0 34.133333 34.133334 34.133333ZM423.754399 554.650757m24.135911-24.135911l144.815469-144.815469q24.135911-24.135911 0-48.271823l0 0q-24.135911-24.135911-48.271823 0l-144.815469 144.815469q-24.135911 24.135911 0 48.271823l0 0q24.135911 24.135911 48.271823 0ZM238.949243 361.56346599999995m24.135911 24.135911l144.815469 144.815469q24.135911 24.135911 48.271823 0l0 0q24.135911-24.135911 0-48.271823l-144.815469-144.815469q-24.135911-24.135911-48.271823 0l0 0q-24.135911 24.135911 0 48.271823ZM512.015909 361.56346599999995m24.135912 24.135911l144.815469 144.815469q24.135911 24.135911 48.271823 0l0 0q24.135911-24.135911 0-48.271823l-144.815469-144.815469q-24.135911-24.135911-48.271823 0l0 0q-24.135911 24.135911 0 48.271823ZM307.2 896m68.266667 0l273.066666 0q68.266667 0 68.266667-68.266667l0 0q0-68.266667-68.266667-68.266666l-273.066666 0q-68.266667 0-68.266667 68.266666l0 0q0 68.266667 68.266667 68.266667Z"  horiz-adv-x="1024" />

    
    <glyph glyph-name="waixiao-jichushuju" unicode="&#58904;" d="M491.174803 891.099954c13.091169 6.582152 28.522658 6.582152 41.613827 0l465.35814-232.715638a46.513874 46.513874 0 0 0 0-83.227654L532.78863 342.367889c-13.164304-6.582152-28.522658-6.582152-41.686962 0L25.816663 575.156662a46.513874 46.513874 0 0 0 0 83.227654L491.174803 891.099954zM511.945149 797.487126L150.658144 616.697354 511.945149 436.126986l361.287005 180.643503L511.945149 797.413991zM67.357355 192.879906l444.660929-222.330465 444.514659 222.330465a46.513874 46.513874 0 0 0 41.686962-83.227654l-465.431275-232.715638c-13.164304-6.582152-28.522658-6.582152-41.686962 0L25.816663 109.79852200000005a46.513874 46.513874 0 1 0 41.686962 83.227654z m0 232.715637l444.660929-222.330464 444.514659 222.330464a46.513874 46.513874 0 0 0 41.686962-83.227654l-465.431275-232.715637c-13.164304-6.582152-28.522658-6.582152-41.686962 0L25.816663 342.44102399999997a46.513874 46.513874 0 0 0 41.686962 83.227654z"  horiz-adv-x="1024" />

    
    <glyph glyph-name="waixiao-rukuguanli" unicode="&#58905;" d="M292.571429 896v-73.142857h512V896h146.285714a146.285714 146.285714 0 0 0 146.285714-146.285714v-731.428572a146.285714 146.285714 0 0 0-146.285714-146.285714H146.285714a146.285714 146.285714 0 0 0-146.285714 146.285714V749.714286a146.285714 146.285714 0 0 0 146.285714 146.285714h146.285715zM146.285714 822.857143a73.142857 73.142857 0 0 1-73.142857-73.142857v-731.428572a73.142857 73.142857 0 0 1 73.142857-73.142857h804.571429a73.142857 73.142857 0 0 1 73.142857 73.142857V749.714286a73.142857 73.142857 0 0 1-73.142857 73.142857H146.285714zM292.571429 164.57142899999997h512v-73.142858H292.571429zM512 457.142857V786.285714a36.571429 36.571429 0 1 0 73.142857 0V457.142857h58.368c13.165714 0 18.578286-10.605714 11.995429-23.552L560.566857 310.85714299999995c-6.582857-12.946286-17.408-12.946286-23.990857 0L441.636571 433.590857C435.053714 446.537143 440.466286 457.142857 453.632 457.142857H512z"  horiz-adv-x="1097" />

    
    <glyph glyph-name="waixiao-chukuguanli" unicode="&#58907;" d="M292.571429 896v-73.142857h512V896h146.285714a146.285714 146.285714 0 0 0 146.285714-146.285714v-731.428572a146.285714 146.285714 0 0 0-146.285714-146.285714H146.285714a146.285714 146.285714 0 0 0-146.285714 146.285714V749.714286a146.285714 146.285714 0 0 0 146.285714 146.285714h146.285715zM146.285714 822.857143a73.142857 73.142857 0 0 1-73.142857-73.142857v-731.428572a73.142857 73.142857 0 0 1 73.142857-73.142857h804.571429a73.142857 73.142857 0 0 1 73.142857 73.142857V749.714286a73.142857 73.142857 0 0 1-73.142857 73.142857H146.285714zM292.571429 164.57142899999997h512v-73.142858H292.571429zM585.142857 666.843429v-329.142858a36.571429 36.571429 0 1 0-73.142857 0v329.142858h-58.368c-13.165714 0-18.578286 10.605714-11.995429 23.552l94.939429 122.733714c6.582857 12.946286 17.408 12.946286 23.990857 0L655.506286 690.468571c6.582857-12.946286 1.170286-23.552-11.995429-23.552H585.142857z"  horiz-adv-x="1097" />

    
    <glyph glyph-name="waixiao-kucunguanli" unicode="&#58913;" d="M135.509333 445.576533H79.189333c-62.122667 0-86.2208 54.818133-42.530133 100.1472L477.866667 843.025067c35.6352 36.864 101.376 36.864 136.533333 0.4096l436.4288-297.710934 0.477867-0.477866c43.281067-44.8512 19.0464-99.669333-43.008-99.669334H955.733333v-435.882666c0-49.425067-15.701333-77.824-68.266666-77.824H214.289067c-58.709333 0-78.711467 27.716267-78.711467 77.824V445.576533zM561.698133 795.648a21.845333 21.845333 0 0 1-31.9488-0.477867l-428.4416-281.258666h102.4v-504.2176c0-16.315733-4.778667-9.557333 10.513067-9.557334H747.52h-68.266667 205.482667c3.959467 0 0-7.168 0 9.557334V513.8432h108.202667L561.698133 795.648zM378.743467 430.08l-20.138667 7.850667a12.288 12.288 0 0 1-13.653333-3.345067 14.336 14.336 0 0 1-2.730667-14.5408l29.764267-80.6912c1.365333-3.6864 4.096-6.5536 7.509333-7.850667 3.549867-1.365333 7.3728-1.092267 10.6496 0.8192l71.543467 41.506134a13.9264 13.9264 0 0 1 6.690133 12.970666 13.653333 13.653333 0 0 1-8.465067 11.8784l-20.548266 7.9872c16.861867 39.3216 50.5856 67.584 90.5216 75.639467a120.285867 120.285867 0 0 0 110.318933-34.952533 30.788267 30.788267 0 0 1 44.782933 1.570133 35.84 35.84 0 0 1 0 47.650133 182.0672 182.0672 0 0 1-169.5744 52.497067c-61.166933-13.312-112.298667-57.821867-136.669866-118.9888zM755.780267 310.8864a12.288 12.288 0 0 1 13.653333 3.2768 14.336 14.336 0 0 1 2.730667 14.609067l-29.764267 80.6912a13.243733 13.243733 0 0 1-7.509333 7.850666 12.151467 12.151467 0 0 1-10.581334-0.8192l-71.611733-41.506133a13.9264 13.9264 0 0 1-6.621867-13.038933 13.653333 13.653333 0 0 1 8.3968-11.810134l20.343467-7.850666a133.256533 133.256533 0 0 0-45.943467-68.266667c-13.175467-10.24-28.330667-17.8176-44.782933-21.981867a120.4224 120.4224 0 0 0-119.125333 37.205334 30.856533 30.856533 0 0 1-45.4656 0.955733 35.84 35.84 0 0 1-0.887467-48.469333c46.08-50.926933 114.005333-72.430933 178.7904-56.661334 64.853333 15.701333 117.1456 66.491733 137.898667 133.802667l20.48-7.9872z"  horiz-adv-x="1092" />

    
    <glyph glyph-name="waixiao-tiaomaguanli" unicode="&#58914;" d="M1023.369897 603.608601V786.353225a36.548925 36.548925 0 0 1-36.548925 36.548925h-877.174197a36.548925 36.548925 0 0 1-36.548925-36.548925v-584.782798a36.548925 36.548925 0 0 1 36.548925-36.548925H438.587099v-73.097849H73.09785a73.09785 73.09785 0 0 0-73.09785 73.097849V822.90215a73.09785 73.09785 0 0 0 73.09785 73.09785h950.272047a73.09785 73.09785 0 0 0 73.097849-73.09785v-219.293549h-73.097849z m0-511.684948h-219.29355 219.29355zM292.391399 676.706451m36.548925 0l0 0q36.548925 0 36.548925-36.548925l0-292.391399q0-36.548925-36.548925-36.548925l0 0q-36.548925 0-36.548925 36.548925l0 292.391399q0 36.548925 36.548925 36.548925ZM511.684948 676.706451m36.548925 0l0 0q36.548925 0 36.548925-36.548925l0-292.391399q0-36.548925-36.548925-36.548925l0 0q-36.548925 0-36.548925 36.548925l0 292.391399q0 36.548925 36.548925 36.548925ZM730.978498 676.706451m36.548924 0l0 0q36.548925 0 36.548925-36.548925l0-73.09785q0-36.548925-36.548925-36.548925l0 0q-36.548925 0-36.548924 36.548925l0 73.09785q0 36.548925 36.548924 36.548925ZM792.892376-125.61554799999999a289.759876 289.759876 0 0 0-116.152483 69.662251c-32.528543 31.797565 27.850281 67.981 7.163589 105.187805-20.686691 37.206806-86.328561 23.829899-91.372312 46.197842a315.344124 315.344124 0 0 0 0 139.178305c5.043752 22.367942 69.954642 7.748372 91.372312 46.197841 21.41767 38.522567-39.692132 73.390241-7.163589 105.187806a289.759876 289.759876 0 0 0 116.225581 69.662251c43.85871 13.742396 42.104361-58.989965 84.208723-58.989965s40.276915 72.732361 84.281821 58.989965a289.759876 289.759876 0 0 0 116.152483-69.662251c32.528543-31.797565-27.850281-67.981-7.163589-105.187806 20.686691-37.206806 86.328561-23.829899 91.372312-46.197841a315.344124 315.344124 0 0 0 0-139.178305c-5.043752-22.367942-69.954642-7.748372-91.372312-46.197842-21.41767-38.522567 39.692132-73.390241 7.163589-105.187805a289.759876 289.759876 0 0 0-116.225581-69.662251c-43.85871-13.742396-42.104361 58.989965-84.208723 58.989965s-40.276915-72.732361-84.281821-58.989965zM877.174197 18.82580299999995a146.1957 146.1957 0 1 1 0 292.391399 146.1957 146.1957 0 0 1 0-292.391399z"  horiz-adv-x="1170" />

    
    <glyph glyph-name="waixiao-yichangguanli" unicode="&#58926;" d="M748.307692-128a354.461538 354.461538 0 1 0 0 708.923077 354.461538 354.461538 0 0 0 0-708.923077z m0 78.769231a275.692308 275.692308 0 1 1 0 551.384615 275.692308 275.692308 0 0 1 0-551.384615zM708.923077 657.959385V777.846154a39.384615 39.384615 0 0 1-39.384615 39.384615h-551.384616a39.384615 39.384615 0 0 1-39.384615-39.384615v-787.692308a39.384615 39.384615 0 0 1 39.384615-39.384615h295.936c24.733538-29.932308 53.326769-56.398769 85.070769-78.769231H78.769231a78.769231 78.769231 0 0 0-78.769231 78.769231V817.230769a78.769231 78.769231 0 0 0 78.769231 78.769231h630.153846a78.769231 78.769231 0 0 0 78.769231-78.769231v-159.271384a438.744615 438.744615 0 0 1-78.769231 0zM748.307692 423.384615a39.384615 39.384615 0 0 0 39.384616-39.384615v-157.538462a39.384615 39.384615 0 0 0-78.769231 0v157.538462a39.384615 39.384615 0 0 0 39.384615 39.384615z m0-393.846153a39.384615 39.384615 0 1 1 0 78.76923 39.384615 39.384615 0 0 1 0-78.76923zM157.538462 659.692308m39.384615 0l315.076923 0q39.384615 0 39.384615-39.384616l0 0q0-39.384615-39.384615-39.384615l-315.076923 0q-39.384615 0-39.384615 39.384615l0 0q0 39.384615 39.384615 39.384616ZM157.538462 423.384615m39.384615 0l78.769231 0q39.384615 0 39.384615-39.384615l0 0q0-39.384615-39.384615-39.384615l-78.769231 0q-39.384615 0-39.384615 39.384615l0 0q0 39.384615 39.384615 39.384615ZM157.538462 187.07692299999997m39.384615 0l78.769231 0q39.384615 0 39.384615-39.384615l0 0q0-39.384615-39.384615-39.384616l-78.769231 0q-39.384615 0-39.384615 39.384616l0 0q0 39.384615 39.384615 39.384615Z"  horiz-adv-x="1102" />

    
    <glyph glyph-name="waixiao-tiaoboguanli" unicode="&#58927;" d="M219.428571 896v-73.142857h658.285715V896h73.142857a146.285714 146.285714 0 0 0 146.285714-146.285714v-731.428572a146.285714 146.285714 0 0 0-146.285714-146.285714H146.285714a146.285714 146.285714 0 0 0-146.285714 146.285714V749.714286a146.285714 146.285714 0 0 0 146.285714 146.285714h73.142857zM146.285714 822.857143a73.142857 73.142857 0 0 1-73.142857-73.142857v-731.428572a73.142857 73.142857 0 0 1 73.142857-73.142857h804.571429a73.142857 73.142857 0 0 1 73.142857 73.142857V749.714286a73.142857 73.142857 0 0 1-73.142857 73.142857H146.285714zM292.571429 164.57142899999997h512v-73.142858H292.571429zM731.428571 666.843429v-329.142858a36.571429 36.571429 0 1 0-73.142857 0v329.142858h-58.368c-13.165714 0-18.578286 10.605714-11.995428 23.552l94.939428 122.733714c6.582857 12.946286 17.408 12.946286 23.990857 0l94.939429-122.733714c6.582857-12.946286 1.170286-23.552-11.995429-23.552H731.428571zM365.714286 457.142857V786.285714a36.571429 36.571429 0 1 0 73.142857 0V457.142857h58.368c13.165714 0 18.578286-10.605714 11.995428-23.552L414.281143 310.85714299999995c-6.582857-12.946286-17.408-12.946286-23.990857 0L295.350857 433.590857C288.768 446.537143 294.180571 457.142857 307.346286 457.142857H365.714286z"  horiz-adv-x="1097" />

    
    <glyph glyph-name="quanxian-gerenzhongxin" unicode="&#58928;" d="M905.846154-128H590.769231V182.350769H433.230769V-128H118.153846a86.646154 86.646154 0 0 0-78.769231 78.769231V532.0861540000001L451.347692 874.732308a97.673846 97.673846 0 0 0 121.304616 0L984.615385 532.0861540000001V-49.23076900000001a78.769231 78.769231 0 0 0-78.769231-78.769231zM118.153846-49.23076900000001h236.307692V261.12h315.076924V-49.23076900000001h236.307692V495.064615L523.027692 817.230769a20.48 20.48 0 0 1-21.267692 0L118.153846 495.064615V-49.23076900000001z"  horiz-adv-x="1024" />

    
    <glyph glyph-name="quanxian-yingyongguanli" unicode="&#58933;" d="M446.171429 384h73.142857v-438.857143h-73.142857zM479.963429 896l443.392-256v-512L479.963429-128 36.571429 128v512L479.963429 896zM475.428571 822.857143L95.378286 603.4285709999999v-438.857142L475.428571-54.85714299999995l380.050286 219.428572V603.4285709999999L475.428571 822.857143zM914.285714 640V603.4285709999999L475.428571 347.42857100000003 36.571429 603.4285709999999v36.571429h58.221714l376.100571-219.428571 376.173715 219.428571H914.285714z"  horiz-adv-x="1024" />

    
    <glyph glyph-name="quanxian-yonghuguanli" unicode="&#58934;" d="M512 310.85714299999995a292.571429 292.571429 0 1 0 0 585.142857 292.571429 292.571429 0 0 0 0-585.142857z m0 73.142857a219.428571 219.428571 0 1 1 0 438.857143 219.428571 219.428571 0 0 1 0-438.857143zM780.507429 288.182857a220.16 220.16 0 0 1-61.44-45.202286A365.714286 365.714286 0 0 1 141.092571-54.85714299999995h-73.142857a438.857143 438.857143 0 0 0 712.557715 343.04zM1024 79.36000000000001l-91.428571-158.354286h-182.857143L658.285714 79.36000000000001 749.714286 237.71428600000002h182.857143L1024 79.36000000000001z m-73.142857 0l-54.857143 95.012571h-109.714286l-54.857143-95.085714 54.857143-94.939428h109.714286l54.857143 95.012571z"  horiz-adv-x="1024" />

    
    <glyph glyph-name="quanxian-zuhuguanli" unicode="&#58935;" d="M512 310.85714299999995a292.571429 292.571429 0 1 0 0 585.142857 292.571429 292.571429 0 0 0 0-585.142857z m0 73.142857a219.428571 219.428571 0 1 1 0 438.857143 219.428571 219.428571 0 0 1 0-438.857143zM780.507429 288.182857a220.16 220.16 0 0 1-61.44-45.202286A365.714286 365.714286 0 0 1 141.092571-54.85714299999995h-73.142857a438.857143 438.857143 0 0 0 712.557715 343.04zM877.714286-128a146.285714 146.285714 0 1 0 0 292.571429 146.285714 146.285714 0 0 0 0-292.571429z m0 73.142857a73.142857 73.142857 0 1 1 0 146.285714 73.142857 73.142857 0 0 1 0-146.285714zM841.142857 457.142857h73.142857v-365.714286h-73.142857zM877.714286 457.142857h146.285714v-73.142857h-146.285714zM877.714286 310.85714299999995h146.285714v-73.142857h-146.285714z"  horiz-adv-x="1024" />

    
    <glyph glyph-name="quanxian-URLheibaimingdan" unicode="&#58936;" d="M691.419429 345.234286H612.059429A142.116571 142.116571 0 0 1 475.428571 526.0434290000001a141.970286 141.970286 0 1 1 109.494858-232.301715h90.550857a219.428571 219.428571 0 1 0 15.945143 51.638857zM256 422.692571m38.692571 0l361.472 0q38.692571 0 38.692572-38.692571l0-0.073143q0-38.692571-38.692572-38.692571l-361.472 0q-38.692571 0-38.692571 38.692571l0 0.073143q0 38.692571 38.692571 38.692571ZM479.963429 896l443.392-256v-512L479.963429-128 36.571429 128v512L479.963429 896zM475.428571 822.857143L95.378286 603.4285709999999v-438.857142L475.428571-54.85714299999995l380.050286 219.428572V603.4285709999999L475.428571 822.857143z"  horiz-adv-x="1024" />

    
    <glyph glyph-name="quanxian-zuzhijiagou" unicode="&#58937;" d="M959.930748 128.05467a32.03426 32.03426 0 0 0-32.034261 31.961123V384.036203a31.961123 31.961123 0 0 1-31.961122 31.961123H575.958449a32.03426 32.03426 0 0 0-32.034261 32.03426V556.202068c0 17.626157 14.334966 31.961123 32.034261 31.961123h58.217514a32.03426 32.03426 0 0 1 32.03426 32.03426V863.965008A32.03426 32.03426 0 0 1 634.102825 895.999269H389.823306a32.03426 32.03426 0 0 1-32.034261-32.034261V620.270589c0-17.699295 14.334966-32.03426 32.034261-32.03426h58.217514c17.699295 0 32.03426-14.334966 32.03426-31.961123v-108.170482a32.03426 32.03426 0 0 0-32.03426-32.034261H127.990766A31.961123 31.961123 0 0 1 96.029644 384.036203v-223.362172a32.03426 32.03426 0 0 0-32.034261-32.619361H32.03426a32.03426 32.03426 0 0 1-32.03426-32.03426v-191.98615c0-17.626157 14.334966-31.961123 32.03426-31.961122h191.913012a31.961123 31.961123 0 0 1 32.034261 31.961122v191.98615a32.03426 32.03426 0 0 1-32.034261 32.03426h-31.961122a31.961123 31.961123 0 0 0-31.961123 31.961123V320.04082000000005c0 17.699295 14.261828 32.03426 31.961123 32.03426h255.981532c17.699295 0 32.03426-14.334966 32.034261-32.03426v-159.366789a32.03426 32.03426 0 0 0-32.034261-32.619361h-32.619361a32.03426 32.03426 0 0 1-32.03426-32.03426v-191.98615c0-17.626157 14.334966-31.961123 32.03426-31.961122h191.98615a31.961123 31.961123 0 0 1 31.961123 31.961122v191.98615a32.03426 32.03426 0 0 1-31.961123 32.03426h-31.376022a31.961123 31.961123 0 0 0-32.034261 31.961123V320.04082000000005c0 17.699295 14.334966 32.03426 32.034261 32.03426h255.981532c17.699295 0 31.961123-14.334966 31.961123-32.03426v-159.366789a31.961123 31.961123 0 0 0-31.961123-31.961122h-31.961122a32.03426 32.03426 0 0 1-32.034261-32.034261v-191.986149c0-17.626157 14.334966-31.961123 32.034261-31.961123h191.986149a31.961123 31.961123 0 0 1 31.961123 31.961123v191.986149a31.961123 31.961123 0 0 1-31.961123 32.034261l-32.03426-0.658239z"  horiz-adv-x="1024" />

    
    <glyph glyph-name="quanxian-zuhuzu" unicode="&#58938;" d="M377.07456 15.039999999999964a538.24 538.24 0 0 1-135.68 38.528c0 12.864 6.4 25.728 6.4 32.192 12.992 6.4 19.456 19.2 19.456 25.664 0 12.864 0 19.328 6.4 32.192h6.464c6.528 0 6.528 0 12.928 6.4l6.464 51.456c0 6.4 0 12.8-6.4 12.8h-6.464c0 6.4 0 19.328 6.4 25.728 0 12.864 6.464 44.992-19.328 70.72-32.32 32.128-109.824 32.128-148.608 0-25.856-19.264-19.392-57.856-19.392-70.72 0-6.4 0-19.264 6.4-25.728h-6.4c-6.464 0-6.464-6.4-6.464-12.8l6.464-51.456c0-6.4 6.4-6.4 12.928-6.4h6.4c0-12.864 0-19.328 6.528-32.192 0-6.4 6.4-19.2 19.392-25.664 0-12.864 0-25.728 6.4-32.192-45.184-6.4-96.896-19.2-135.68-38.528-12.864-6.4-25.792-25.728-19.328-44.992 0-19.328 6.4-32.128 6.4-51.456 0-12.8 12.992-32.128 25.92-32.128 116.288-19.264 239.04-19.264 361.792 0 12.864 0 25.792 19.264 25.792 32.128 0 19.328 6.464 32.128 6.464 51.456-25.856 12.8-38.72 32.128-51.648 44.992z m595.84 0a538.176 538.176 0 0 1-135.68 38.528c0 12.864 0 25.728 6.464 32.192 12.928 6.4 19.392 19.2 19.392 25.664 0 12.864 0 19.328 6.464 32.192h6.464c6.464 0 6.464 0 12.928 6.4l6.464 51.456c0 6.4 0 12.8-6.4 12.8h-6.528c0 6.4 0 19.328 6.464 25.728 0 12.864 6.464 44.992-19.392 70.72-32.256 32.128-109.824 32.128-148.544 0-25.856-19.264-19.392-57.856-19.392-70.72 0-6.4 0-19.264 6.4-25.728h-6.4c-6.464 0-6.464-6.4-6.464-12.8l6.4-51.456c0-6.4 6.528-6.4 12.992-6.4h6.4c0-12.864 0-19.328 6.528-32.192 0-6.4 6.4-19.2 19.328-25.664 0-12.864 0-25.728 6.464-32.192-45.184-6.4-96.896-19.2-135.68-38.528-12.864-6.4-25.792-25.728-19.328-44.992 0-19.328 6.4-32.128 6.4-51.456 0-12.8 12.928-32.128 25.856-32.128 116.288-19.264 239.04-19.264 361.792 0 12.928 0 25.856 19.264 25.856 32.128 0 19.328 6.464 32.128 6.464 51.456-25.856 12.8-38.784 32.128-51.712 44.992z m-300.8 561.152a538.24 538.24 0 0 1-135.68 38.592c0 12.8 6.464 25.664 6.464 32.128 12.928 6.4 19.392 19.264 19.392 25.728 0 12.8 0 19.264 6.4 32.128h6.528c6.4 0 6.4 0 12.928 6.4l6.4 51.456c0 6.4-6.4 6.4-6.4 12.8h-6.464c0 6.464 0 19.328 6.4 25.792 0 12.8 6.528 44.992-19.328 70.656-32.32 32.192-109.824 32.192-148.608 0-25.856-19.2-19.392-57.856-19.392-70.656 0-6.464 0-19.328 6.464-25.728h-6.4c-6.528 0-6.528-6.4-6.528-12.864l6.464-51.456c0-6.4 6.464-6.4 12.928-6.4h6.464c0-12.864 0-19.264 6.4-32.128 0-6.4 6.528-19.328 19.456-25.728 0-12.8 0-25.728 6.4-32.128-45.184-6.4-96.896-19.328-135.68-38.592-12.864-6.4-25.792-25.728-19.328-44.992 0-19.264 6.4-32.128 6.4-51.392 0-12.864 12.992-32.192 25.92-32.192 116.288-19.264 239.04-19.264 361.792 0 12.928 0 25.792 19.328 25.792 32.192 0 19.2 6.464 32.128 6.464 51.392-25.792 19.264-32.256 38.592-51.648 44.992z m-42.88-432.832l-116.736 70.912V349.568c0 12.864-12.928 25.728-25.92 25.728-12.928 0-25.92-12.864-25.92-25.728v-135.296L343.92256 143.36c-12.928-6.4-19.456-25.728-6.464-38.656 6.464-6.4 12.992-12.864 19.456-12.864 6.464 0 6.464 0 12.992 6.4l116.672 70.912 116.736-70.848c6.464 0 6.464-6.464 12.928-6.464 6.528 0 19.456 6.4 19.456 12.864 12.992 12.928 6.528 32.256-6.4 38.656z"  horiz-adv-x="1024" />

    
    <glyph glyph-name="quanxian-jiaoseguanli" unicode="&#58939;" d="M0 896h1303.272727v-1024H0V896z m93.090909-93.090909v-837.818182h1117.090909V802.909091H93.090909zM837.818182 616.727273m46.545454 0l93.090909 0q46.545455 0 46.545455-46.545455l0 0q0-46.545455-46.545455-46.545454l-93.090909 0q-46.545455 0-46.545454 46.545454l0 0q0 46.545455 46.545454 46.545455ZM837.818182 430.545455m46.545454 0l93.090909 0q46.545455 0 46.545455-46.545455l0 0q0-46.545455-46.545455-46.545455l-93.090909 0q-46.545455 0-46.545454 46.545455l0 0q0 46.545455 46.545454 46.545455ZM837.818182 244.36363600000004m46.545454 0l93.090909 0q46.545455 0 46.545455-46.545454l0 0q0-46.545455-46.545455-46.545455l-93.090909 0q-46.545455 0-46.545454 46.545455l0 0q0 46.545455 46.545454 46.545454ZM577.163636 315.485091c0 50.269091 83.502545 71.400727 83.502546 174.08 0 83.502545-20.200727 164.677818-148.666182 164.677818s-143.36-81.175273-143.36-164.584727c0-102.772364 78.196364-123.810909 78.196364-174.173091 0-52.689455-158.254545-79.685818-158.254546-79.685818C279.272727 235.79927299999997 279.272727 151.27272700000003 279.272727 151.27272700000003h465.454546c-0.093091 0-0.093091 84.526545-9.402182 84.526546 0 0-158.254545 26.903273-158.254546 79.685818z"  horiz-adv-x="1303" />

    
    <glyph glyph-name="quanxian-shujuleixing" unicode="&#58929;" d="M494.616917 891.426133c12.219733 6.144 26.624 6.144 38.843734 0l434.3808-217.224533a43.4176 43.4176 0 0 0 0-77.687467L533.460651 379.22133299999996c-12.288-6.144-26.624-6.144-38.912 0L60.236117 596.514133a43.4176 43.4176 0 0 0 0 77.687467L494.616917 891.426133zM514.004651 844.8l-409.6-204.8 409.6-204.8 409.6 204.8-409.6 204.8zM91.024384 437.794133L514.004651 223.77813300000003l418.065066 206.301867c21.504 10.717867 44.2368 12.288 54.954667-9.147733 10.717867-21.504 2.321067-38.434133-19.114667-49.152l-434.449066-217.224534c-12.288-6.144-26.624-6.144-38.912 0L60.236117 371.780267c-21.435733 10.717867-34.816 31.607467-24.029866 53.0432 10.717867 21.504 33.450667 23.688533 54.8864 12.970666z m0-230.741333L514.004651-6.963200000000029l418.065066 206.301867c21.504 10.717867 44.2368 12.288 54.954667-9.147734 10.717867-21.504 2.321067-38.434133-19.114667-49.152l-434.449066-217.224533c-12.288-6.144-26.624-6.144-38.912 0L60.236117 141.03893300000004c-21.435733 10.717867-34.816 31.607467-24.029866 53.0432 10.717867 21.504 33.450667 23.688533 54.8864 12.970667z"  horiz-adv-x="1024" />

    
    <glyph glyph-name="BMS-jichushuju" unicode="&#58940;" d="M73.142857 310.85714299999995h877.714286a73.142857 73.142857 0 0 0 73.142857-73.142857v-292.571429a73.142857 73.142857 0 0 0-73.142857-73.142857H73.142857a73.142857 73.142857 0 0 0-73.142857 73.142857V237.71428600000002a73.142857 73.142857 0 0 0 73.142857 73.142857z m36.571429-73.142857a36.571429 36.571429 0 0 1-36.571429-36.571429v-219.428571a36.571429 36.571429 0 0 1 36.571429-36.571429h804.571428a36.571429 36.571429 0 0 1 36.571429 36.571429v219.428571a36.571429 36.571429 0 0 1-36.571429 36.571429h-804.571428zM73.142857 896h877.714286a73.142857 73.142857 0 0 0 73.142857-73.142857v-292.571429a73.142857 73.142857 0 0 0-73.142857-73.142857H73.142857a73.142857 73.142857 0 0 0-73.142857 73.142857V822.857143a73.142857 73.142857 0 0 0 73.142857 73.142857z m36.571429-73.142857a36.571429 36.571429 0 0 1-36.571429-36.571429v-219.428571a36.571429 36.571429 0 0 1 36.571429-36.571429h804.571428a36.571429 36.571429 0 0 1 36.571429 36.571429v219.428571a36.571429 36.571429 0 0 1-36.571429 36.571429h-804.571428zM146.285714 164.57142899999997h146.285715v-146.285715H146.285714zM146.285714 749.714286h146.285715v-146.285715H146.285714z"  horiz-adv-x="1024" />

    
    <glyph glyph-name="BMS-jifeishuju" unicode="&#58941;" d="M146.285714 896h804.571429a146.285714 146.285714 0 0 0 146.285714-146.285714v-731.428572a146.285714 146.285714 0 0 0-146.285714-146.285714H146.285714a146.285714 146.285714 0 0 0-146.285714 146.285714V749.714286a146.285714 146.285714 0 0 0 146.285714 146.285714z m0-73.142857a73.142857 73.142857 0 0 1-73.142857-73.142857v-731.428572a73.142857 73.142857 0 0 1 73.142857-73.142857h804.571429a73.142857 73.142857 0 0 1 73.142857 73.142857V749.714286a73.142857 73.142857 0 0 1-73.142857 73.142857H146.285714zM73.142857 603.4285709999999h950.857143v-73.142857H73.142857zM146.285714 749.714286h219.428572v-73.142857H146.285714zM146.285714 310.85714299999995h365.714286v-73.142857H146.285714zM365.714286 457.142857v-365.714286H292.571429V457.142857zM658.285714 310.85714299999995h292.571429v-73.142857H658.285714z"  horiz-adv-x="1097" />

    
    <glyph glyph-name="BMS-feishuaiguanli" unicode="&#58942;" d="M887.466667 554.666667V622.933333H204.8v-68.266666H68.266667a68.266667 68.266667 0 0 0-68.266667 68.266666V827.733333a68.266667 68.266667 0 0 0 68.266667 68.266667h955.733333a68.266667 68.266667 0 0 0 68.266667-68.266667v-204.8a68.266667 68.266667 0 0 0-68.266667-68.266666h-136.533333zM102.4 827.733333a34.133333 34.133333 0 0 1-34.133333-34.133333v-136.533333a34.133333 34.133333 0 0 1 34.133333-34.133334h887.466667a34.133333 34.133333 0 0 1 34.133333 34.133334v136.533333a34.133333 34.133333 0 0 1-34.133333 34.133333h-887.466667zM136.533333 759.466667h819.2v-68.266667H136.533333zM136.533333 759.466667h819.2v-887.466667H136.533333V759.466667z m68.266667-68.266667v-750.933333h682.666667V691.2H204.8zM679.253333 506.402133l48.196267-48.264533-337.92-337.92L341.333333 168.48213299999998zM409.6 349.866667a136.533333 136.533333 0 1 0 0 273.066666 136.533333 136.533333 0 0 0 0-273.066666z m0 204.8a68.266667 68.266667 0 1 1 0-136.533334 68.266667 68.266667 0 0 1 0 136.533334zM682.666667 8.53333299999997a136.533333 136.533333 0 1 0 0 273.066667 136.533333 136.533333 0 0 0 0-273.066667z m0 204.8a68.266667 68.266667 0 1 1 0-136.533333 68.266667 68.266667 0 0 1 0 136.533333z"  horiz-adv-x="1092" />

    
    <glyph glyph-name="BMS-chengbenhejia" unicode="&#58943;" d="M146.285714 896h804.571429a146.285714 146.285714 0 0 0 146.285714-146.285714v-731.428572a146.285714 146.285714 0 0 0-146.285714-146.285714H146.285714a146.285714 146.285714 0 0 0-146.285714 146.285714V749.714286a146.285714 146.285714 0 0 0 146.285714 146.285714z m0-73.142857a73.142857 73.142857 0 0 1-73.142857-73.142857v-731.428572a73.142857 73.142857 0 0 1 73.142857-73.142857h804.571429a73.142857 73.142857 0 0 1 73.142857 73.142857V749.714286a73.142857 73.142857 0 0 1-73.142857 73.142857H146.285714zM219.428571 164.57142899999997h438.857143v-73.142858H219.428571zM635.830857 458.166857l225.645714-225.645714-51.712-51.712-225.645714 225.645714-51.712-51.712 18.432-19.090286-51.419428-51.419428-155.062858 155.136 51.638858 51.712 18.944-18.870857 154.770285 154.843428-18.870857 18.870857 52.077714 52.077715 155.136-155.136-51.931428-51.931429-18.724572 18.797714-51.565714-51.565714z"  horiz-adv-x="1097" />

    
    <glyph glyph-name="BMS-jiekouguanli" unicode="&#58944;" d="M580.266667 896h204.8v-204.8H580.266667zM238.933333 486.4h204.8v-204.8H238.933333zM580.266667 76.79999999999995h204.8v-204.8H580.266667zM34.133333 827.733333m34.133334 0l887.466666 0q34.133333 0 34.133334-34.133333l0 0q0-34.133333-34.133334-34.133333l-887.466666 0q-34.133333 0-34.133334 34.133333l0 0q0 34.133333 34.133334 34.133333ZM34.133333 418.133333m34.133334 0l887.466666 0q34.133333 0 34.133334-34.133333l0 0q0-34.133333-34.133334-34.133333l-887.466666 0q-34.133333 0-34.133334 34.133333l0 0q0 34.133333 34.133334 34.133333ZM34.133333 8.53333299999997m34.133334 0l887.466666 0q34.133333 0 34.133334-34.133333l0 0q0-34.133333-34.133334-34.133333l-887.466666 0q-34.133333 0-34.133334 34.133333l0 0q0 34.133333 34.133334 34.133333Z"  horiz-adv-x="1024" />

    
    <glyph glyph-name="BMS-yichangmokuai" unicode="&#58945;" d="M841.142857-128a329.142857 329.142857 0 1 0 0 658.285714 329.142857 329.142857 0 0 0 0-658.285714z m0 73.142857a256 256 0 1 1 0 512 256 256 0 0 1 0-512zM731.428571 588.288V786.285714a36.571429 36.571429 0 0 1-36.571428 36.571429h-585.142857a36.571429 36.571429 0 0 1-36.571429-36.571429v-731.428571a36.571429 36.571429 0 0 1 36.571429-36.571429h373.028571c13.385143-26.185143 29.549714-50.688 48.054857-73.142857H73.142857a73.142857 73.142857 0 0 0-73.142857 73.142857V822.857143a73.142857 73.142857 0 0 0 73.142857 73.142857h658.285714a73.142857 73.142857 0 0 0 73.142858-73.142857v-221.037714a400.822857 400.822857 0 0 1-73.142858-13.531429zM841.142857 384a36.571429 36.571429 0 0 0 36.571429-36.571429v-146.285714a36.571429 36.571429 0 1 0-73.142857 0v146.285714a36.571429 36.571429 0 0 0 36.571428 36.571429z m0-365.714286a36.571429 36.571429 0 1 1 0 73.142857 36.571429 36.571429 0 0 1 0-73.142857zM219.428571 676.571429m36.571429 0l292.571429 0q36.571429 0 36.571428-36.571429l0 0q0-36.571429-36.571428-36.571429l-292.571429 0q-36.571429 0-36.571429 36.571429l0 0q0 36.571429 36.571429 36.571429ZM219.428571 457.142857m36.571429 0l219.428571 0q36.571429 0 36.571429-36.571428l0 0q0-36.571429-36.571429-36.571429l-219.428571 0q-36.571429 0-36.571429 36.571429l0 0q0 36.571429 36.571429 36.571428ZM219.428571 237.71428600000002m36.571429 0l146.285714 0q36.571429 0 36.571429-36.571429l0 0q0-36.571429-36.571429-36.571428l-146.285714 0q-36.571429 0-36.571429 36.571428l0 0q0 36.571429 36.571429 36.571429Z"  horiz-adv-x="1170" />

    
    <glyph glyph-name="BMS-yingfujiesuan" unicode="&#58946;" d="M901.469681 195.32214a24.959548 24.959548 0 0 1 34.943366 10.559808 479.543308 479.543308 0 0 1 37.50332 354.553574C904.79762 806.959054 655.458139 949.100478 418.086442 877.357778c-183.100681-55.486994-312.506336-226.043903-322.042163-424.312309-0.767986-14.783732 10.239814-27.327505 24.319559-28.095491 14.079745-1.023981 26.367522 10.623807 27.007511 25.34354 8.511846 175.548818 123.069769 326.522082 285.114832 375.673191 210.108192 63.486849 430.776192-62.270871 492.023082-280.506915a424.440307 424.440307 0 0 0-33.279397-313.850312 27.327505 27.327505 0 0 1 10.239815-36.287342M649.250252 516.852312c12.543773 0 22.655589 11.519791 22.655589 25.791533 0 14.207742-10.111817 25.727534-22.655589 25.727533H579.363519l63.614847 94.206293a28.15949 28.15949 0 0 1-4.223924 36.095346c-9.91982 8.639843-24.127563 6.527882-31.807423-4.735915L543.97216 600.562795l-63.038857 93.374307c-7.679861 11.263796-21.887603 13.439756-31.807424 4.735915a28.15949 28.15949 0 0 1-4.223923-36.095346l63.614847-94.206293H438.630069c-12.479774 0-22.655589-11.519791-22.655589-25.727533 0-14.207742 10.175816-25.791533 22.655589-25.791533h82.686502v-66.046803H438.630069c-12.479774 0-22.655589-11.519791-22.655589-25.727534 0-14.271741 10.175816-25.791533 22.655589-25.791532h82.686502v-117.565869c0-14.207742 10.111817-25.727534 22.655589-25.727534 12.543773 0 22.655589 11.519791 22.65559 25.727534V399.350442h82.686501c12.479774 0 22.655589 11.519791 22.655589 25.791532 0 14.207742-10.175816 25.727534-22.655589 25.727534H566.62775V516.852312h82.558503zM942.428938-60.80121799999995H441.062025c-19.071654 3.263941-255.419371 48.639118-354.681571 287.610787-6.399884 15.99971-10.559809 73.278672 4.223923 96.766246 5.375903 8.511846 11.263796 9.599826 15.807714 9.599826 11.071799 0 31.99942-7.807858 68.862752-44.991184 19.135653-19.263651 33.151399-38.527302 47.99913-58.942932 63.742845-87.614412 124.285747-146.173351 375.353197-162.621052l3.071944-0.127998a48.319124 48.319124 0 0 1 42.303233 25.791532 52.479049 52.479049 0 0 1-2.431956 53.759026 838.192808 838.192808 0 0 0-26.879513 42.047238c-4.99191 8.767841-6.911875 25.91953-1.919965 35.071364 2.815949 5.183906 8.319849 7.807858 16.447702 7.807859 11.455792 0 38.591301-5.567899 91.902334-42.751225a49.279107 49.279107 0 0 1 4.927911-3.007946c28.15949-15.871712 124.541743-67.83877 216.316079-89.662375v-156.349166h0.063999z m19.583645 203.772307c-100.41418 21.439611-213.628128 87.358417-213.820124 87.358416-49.471103 34.559374-88.446397 51.32707-118.973844 51.32707-25.663535 0-47.103146-12.15978-58.686936-33.471393-15.039727-27.391504-10.175816-63.870842 2.303958-85.886444 5.759896-10.047818 16.959693-27.263506 28.799478-45.119182-247.547513 16.191707-290.554734 75.198637-339.641844 142.717413-15.359722 20.99162-31.167435 42.687226-52.927041 64.638829-40.063274 40.447267-72.702682 59.262926-102.654139 59.262926-23.231579 0-43.263216-11.519791-56.446977-32.383413-27.135508-43.135218-18.111672-120.957808-8.191851-144.637379 111.677976-268.987125 381.24109-315.962273 392.632883-317.818239 1.919965-0.319994 3.775932-0.447992 5.631898-0.447992h514.678671a37.055328 37.055328 0 0 1 36.287343 37.759315v179.644744a37.439321 37.439321 0 0 1-28.991475 37.055329z"  horiz-adv-x="1024" />

    
    <glyph glyph-name="chadan-dingdanchaxun" unicode="&#58947;" d="M375.466667 827.733333v-68.266666h273.066666V827.733333h204.8a136.533333 136.533333 0 0 0 136.533334-136.533333v-682.666667a136.533333 136.533333 0 0 0-136.533334-136.533333H170.666667a136.533333 136.533333 0 0 0-136.533334 136.533333V691.2a136.533333 136.533333 0 0 0 136.533334 136.533333h204.8zM170.666667 759.466667a68.266667 68.266667 0 0 1-68.266667-68.266667v-682.666667a68.266667 68.266667 0 0 1 68.266667-68.266666h682.666666a68.266667 68.266667 0 0 1 68.266667 68.266666V691.2a68.266667 68.266667 0 0 1-68.266667 68.266667H170.666667zM238.933333 213.33333300000004m34.133334 0l477.866666 0q34.133333 0 34.133334-34.133333l0 0q0-34.133333-34.133334-34.133333l-477.866666 0q-34.133333 0-34.133334 34.133333l0 0q0 34.133333 34.133334 34.133333ZM238.933333 418.133333m34.133334 0l477.866666 0q34.133333 0 34.133334-34.133333l0 0q0-34.133333-34.133334-34.133333l-477.866666 0q-34.133333 0-34.133334 34.133333l0 0q0 34.133333 34.133334 34.133333ZM238.933333 622.933333m34.133334 0l477.866666 0q34.133333 0 34.133334-34.133333l0 0q0-34.133333-34.133334-34.133333l-477.866666 0q-34.133333 0-34.133334 34.133333l0 0q0 34.133333 34.133334 34.133333ZM307.2 896m68.266667 0l273.066666 0q68.266667 0 68.266667-68.266667l0 0q0-68.266667-68.266667-68.266666l-273.066666 0q-68.266667 0-68.266667 68.266666l0 0q0 68.266667 68.266667 68.266667Z"  horiz-adv-x="1024" />

    
    <glyph glyph-name="chadan-dingdanyichangchuli" unicode="&#58948;" d="M841.142857-128a329.142857 329.142857 0 1 0 0 658.285714 329.142857 329.142857 0 0 0 0-658.285714z m0 73.142857a256 256 0 1 1 0 512 256 256 0 0 1 0-512zM731.428571 588.288V786.285714a36.571429 36.571429 0 0 1-36.571428 36.571429h-585.142857a36.571429 36.571429 0 0 1-36.571429-36.571429v-731.428571a36.571429 36.571429 0 0 1 36.571429-36.571429h373.028571c13.385143-26.185143 29.549714-50.688 48.054857-73.142857H73.142857a73.142857 73.142857 0 0 0-73.142857 73.142857V822.857143a73.142857 73.142857 0 0 0 73.142857 73.142857h658.285714a73.142857 73.142857 0 0 0 73.142858-73.142857v-221.037714a400.822857 400.822857 0 0 1-73.142858-13.531429zM841.142857 384a36.571429 36.571429 0 0 0 36.571429-36.571429v-146.285714a36.571429 36.571429 0 1 0-73.142857 0v146.285714a36.571429 36.571429 0 0 0 36.571428 36.571429z m0-365.714286a36.571429 36.571429 0 1 1 0 73.142857 36.571429 36.571429 0 0 1 0-73.142857zM219.428571 676.571429m36.571429 0l292.571429 0q36.571429 0 36.571428-36.571429l0 0q0-36.571429-36.571428-36.571429l-292.571429 0q-36.571429 0-36.571429 36.571429l0 0q0 36.571429 36.571429 36.571429ZM219.428571 457.142857m36.571429 0l219.428571 0q36.571429 0 36.571429-36.571428l0 0q0-36.571429-36.571429-36.571429l-219.428571 0q-36.571429 0-36.571429 36.571429l0 0q0 36.571429 36.571429 36.571428ZM219.428571 237.71428600000002m36.571429 0l146.285714 0q36.571429 0 36.571429-36.571429l0 0q0-36.571429-36.571429-36.571428l-146.285714 0q-36.571429 0-36.571429 36.571428l0 0q0 36.571429 36.571429 36.571429Z"  horiz-adv-x="1170" />

    
    <glyph glyph-name="chadan-shixiaobaobiao" unicode="&#58949;" d="M864.6593 198.20779600000003l46.079971-19.519988 7.679995 17.407989c67.199958 153.663904 44.351972 326.783796-59.135963 456.447715l51.327968 44.735972a510.399681 510.399681 0 0 0 108.159932-247.999845 515.839678 515.839678 0 0 0-37.631976-279.359825l-7.679995-17.855989 49.215969-20.927987-118.143926-58.623963-39.871975 125.695921zM113.427769 72.70387500000004a510.463681 510.463681 0 0 0-108.159932 247.999845A515.839678 515.839678 0 0 0 42.899813 600.063545l7.679995 17.855989-49.215969 20.863987 118.143926 58.687963 39.871975-125.759921-46.079971 19.583987-7.679995-17.471989c-67.199958-153.599904-44.351972-326.719796 59.199963-456.383714l-51.391968-44.735972zM503.059526-128a513.663679 513.663679 0 0 0-206.079872 42.879973l-17.791988 7.679995-20.927987-49.279969-58.623964 118.207926 125.759922 39.871975-19.583988-46.079971 17.407989-7.679995c56.703965-24.959984 118.015926-37.759976 179.967888-37.759976a443.903723 443.903723 0 0 1 276.479827 96.895939l44.671972-51.327968A509.887681 509.887681 0 0 0 502.995526-128zM199.699715 782.5914310000001A509.887681 509.887681 0 0 0 521.043514 895.99936a514.111679 514.111679 0 0 0 206.079872-42.879973l17.791988-7.679995 20.927987 49.279969 58.623964-118.207926-125.759922-39.871975 19.583988 46.079971-17.471989 7.679995a445.759721 445.759721 0 0 1-179.839888 37.759976 443.967723 443.967723 0 0 1-276.479827-96.895939l-44.735972 51.327968z m205.055872-469.439707V623.039531h2.431999c6.911996 20.351987 27.647983 34.815978 51.711967 34.815978 23.999985 0 44.799972-14.463991 51.647968-34.815978h2.431998v-260.479838l215.999865-109.567931c19.711988-7.679995 33.023979-25.407984 33.02398-45.695972 0-27.583983-24.447985-49.535969-54.079966-49.535969a57.343964 57.343964 0 0 0-31.551981 9.279995L404.883587 313.15172399999994z"  horiz-adv-x="1024" />

    
    <glyph glyph-name="chadan-quanliuchengbaobiao" unicode="&#58950;" d="M375.466667 827.733333v-68.266666h273.066666V827.733333h204.8a136.533333 136.533333 0 0 0 136.533334-136.533333v-682.666667a136.533333 136.533333 0 0 0-136.533334-136.533333H170.666667a136.533333 136.533333 0 0 0-136.533334 136.533333V691.2a136.533333 136.533333 0 0 0 136.533334 136.533333h204.8zM170.666667 759.466667a68.266667 68.266667 0 0 1-68.266667-68.266667v-682.666667a68.266667 68.266667 0 0 1 68.266667-68.266666h682.666666a68.266667 68.266667 0 0 1 68.266667 68.266666V691.2a68.266667 68.266667 0 0 1-68.266667 68.266667H170.666667zM238.933333 213.33333300000004m34.133334 0l477.866666 0q34.133333 0 34.133334-34.133333l0 0q0-34.133333-34.133334-34.133333l-477.866666 0q-34.133333 0-34.133334 34.133333l0 0q0 34.133333 34.133334 34.133333ZM423.754399 554.650757m24.135911-24.135911l144.815469-144.815469q24.135911-24.135911 0-48.271823l0 0q-24.135911-24.135911-48.271823 0l-144.815469 144.815469q-24.135911 24.135911 0 48.271823l0 0q24.135911 24.135911 48.271823 0ZM238.949243 361.56346599999995m24.135911 24.135911l144.815469 144.815469q24.135911 24.135911 48.271823 0l0 0q24.135911-24.135911 0-48.271823l-144.815469-144.815469q-24.135911-24.135911-48.271823 0l0 0q-24.135911 24.135911 0 48.271823ZM512.015909 361.56346599999995m24.135912 24.135911l144.815469 144.815469q24.135911 24.135911 48.271823 0l0 0q24.135911-24.135911 0-48.271823l-144.815469-144.815469q-24.135911-24.135911-48.271823 0l0 0q-24.135911 24.135911 0 48.271823ZM307.2 896m68.266667 0l273.066666 0q68.266667 0 68.266667-68.266667l0 0q0-68.266667-68.266667-68.266666l-273.066666 0q-68.266667 0-68.266667 68.266666l0 0q0 68.266667 68.266667 68.266667Z"  horiz-adv-x="1024" />

    
    <glyph glyph-name="jiankong-jiekoupeizhi" unicode="&#58951;" d="M580.266667 896h204.8v-204.8H580.266667zM238.933333 486.4h204.8v-204.8H238.933333zM580.266667 76.79999999999995h204.8v-204.8H580.266667zM34.133333 827.733333m34.133334 0l887.466666 0q34.133333 0 34.133334-34.133333l0 0q0-34.133333-34.133334-34.133333l-887.466666 0q-34.133333 0-34.133334 34.133333l0 0q0 34.133333 34.133334 34.133333ZM34.133333 418.133333m34.133334 0l887.466666 0q34.133333 0 34.133334-34.133333l0 0q0-34.133333-34.133334-34.133333l-887.466666 0q-34.133333 0-34.133334 34.133333l0 0q0 34.133333 34.133334 34.133333ZM34.133333 8.53333299999997m34.133334 0l887.466666 0q34.133333 0 34.133334-34.133333l0 0q0-34.133333-34.133334-34.133333l-887.466666 0q-34.133333 0-34.133334 34.133333l0 0q0 34.133333 34.133334 34.133333Z"  horiz-adv-x="1024" />

    
    <glyph glyph-name="jiankong-jiankongyujing" unicode="&#58952;" d="M128 448h768a64 64 0 0 0 64-64v-448a64 64 0 0 0-64-64H128a64 64 0 0 0-64 64V384a64 64 0 0 0 64 64z m32-72a32 32 0 0 1-32-32v-368a32 32 0 0 1 32-32h704a32 32 0 0 1 32 32v368a32 32 0 0 1-32 32h-704zM448 256m64 0l0 0q64 0 64-64l0 0q0-64-64-64l0 0q-64 0-64 64l0 0q0 64 64 64ZM887.04 384l-103.68 414.592a32 32 0 0 1-30.976 24.32H269.696a32 32 0 0 1-30.912-23.872L128.896 384H64L179.84 847.552A64 64 0 0 0 241.92 896h540.16a64 64 0 0 0 62.08-48.448L960 384h-72.96z"  horiz-adv-x="1024" />

    
    <glyph glyph-name="queqiao-jiekouzuguanli" unicode="&#58953;" d="M580.266667 896h204.8v-204.8H580.266667zM238.933333 486.4h204.8v-204.8H238.933333zM580.266667 76.79999999999995h204.8v-204.8H580.266667zM34.133333 827.733333m34.133334 0l887.466666 0q34.133333 0 34.133334-34.133333l0 0q0-34.133333-34.133334-34.133333l-887.466666 0q-34.133333 0-34.133334 34.133333l0 0q0 34.133333 34.133334 34.133333ZM34.133333 418.133333m34.133334 0l887.466666 0q34.133333 0 34.133334-34.133333l0 0q0-34.133333-34.133334-34.133333l-887.466666 0q-34.133333 0-34.133334 34.133333l0 0q0 34.133333 34.133334 34.133333ZM34.133333 8.53333299999997m34.133334 0l887.466666 0q34.133333 0 34.133334-34.133333l0 0q0-34.133333-34.133334-34.133333l-887.466666 0q-34.133333 0-34.133334 34.133333l0 0q0 34.133333 34.133334 34.133333Z"  horiz-adv-x="1024" />

    
    <glyph glyph-name="queqiao-wangguanguanli" unicode="&#58954;" d="M73.142857 310.85714299999995h877.714286a73.142857 73.142857 0 0 0 73.142857-73.142857v-292.571429a73.142857 73.142857 0 0 0-73.142857-73.142857H73.142857a73.142857 73.142857 0 0 0-73.142857 73.142857V237.71428600000002a73.142857 73.142857 0 0 0 73.142857 73.142857z m36.571429-73.142857a36.571429 36.571429 0 0 1-36.571429-36.571429v-219.428571a36.571429 36.571429 0 0 1 36.571429-36.571429h804.571428a36.571429 36.571429 0 0 1 36.571429 36.571429v219.428571a36.571429 36.571429 0 0 1-36.571429 36.571429h-804.571428zM658.285714 164.57142899999997m73.142857 0l73.142858 0q73.142857 0 73.142857-73.142858l0 0q0-73.142857-73.142857-73.142857l-73.142858 0q-73.142857 0-73.142857 73.142857l0 0q0 73.142857 73.142857 73.142858ZM438.857143 164.57142899999997m73.142857 0l0 0q73.142857 0 73.142857-73.142858l0 0q0-73.142857-73.142857-73.142857l0 0q-73.142857 0-73.142857 73.142857l0 0q0 73.142857 73.142857 73.142858ZM945.298286 237.71428600000002l-123.684572 556.470857A36.571429 36.571429 0 0 1 785.92 822.857143h-550.034286a36.571429 36.571429 0 0 1-35.620571-28.16L69.266286 237.71428600000002H0L133.558857 838.729143A73.142857 73.142857 0 0 0 204.946286 896h614.107428a73.142857 73.142857 0 0 0 71.387429-57.270857L1024 237.71428600000002h-78.701714z"  horiz-adv-x="1024" />

    
    <glyph glyph-name="queqiao-jiekourizhi" unicode="&#58955;" d="M146.285714 603.4285709999999h731.428572a146.285714 146.285714 0 0 0 146.285714-146.285714v-438.857143a146.285714 146.285714 0 0 0-146.285714-146.285714H146.285714a146.285714 146.285714 0 0 0-146.285714 146.285714V457.142857a146.285714 146.285714 0 0 0 146.285714 146.285714z m0-73.142857a73.142857 73.142857 0 0 1-73.142857-73.142857v-438.857143a73.142857 73.142857 0 0 1 73.142857-73.142857h731.428572a73.142857 73.142857 0 0 1 73.142857 73.142857V457.142857a73.142857 73.142857 0 0 1-73.142857 73.142857H146.285714zM219.428571 164.57142899999997m36.571429 0l512 0q36.571429 0 36.571429-36.571429l0 0q0-36.571429-36.571429-36.571429l-512 0q-36.571429 0-36.571429 36.571429l0 0q0 36.571429 36.571429 36.571429ZM219.428571 384m36.571429 0l512 0q36.571429 0 36.571429-36.571429l0 0q0-36.571429-36.571429-36.571428l-512 0q-36.571429 0-36.571429 36.571428l0 0q0 36.571429 36.571429 36.571429ZM877.714286 530.285714h-73.142857V749.714286a73.142857 73.142857 0 0 1-73.142858 73.142857H292.571429a73.142857 73.142857 0 0 1-73.142858-73.142857v-219.428572H146.285714V749.714286a146.285714 146.285714 0 0 0 146.285715 146.285714h438.857142a146.285714 146.285714 0 0 0 146.285715-146.285714v-219.428572z m-146.285715-438.857143H292.571429h438.857142zM365.714286 749.714286m36.571428 0l219.428572 0q36.571429 0 36.571428-36.571429l0 0q0-36.571429-36.571428-36.571428l-219.428572 0q-36.571429 0-36.571428 36.571428l0 0q0 36.571429 36.571428 36.571429Z"  horiz-adv-x="1024" />

    
    <glyph glyph-name="MDM-shujukuguanli" unicode="&#58956;" d="M73.142857 310.85714299999995h877.714286a73.142857 73.142857 0 0 0 73.142857-73.142857v-292.571429a73.142857 73.142857 0 0 0-73.142857-73.142857H73.142857a73.142857 73.142857 0 0 0-73.142857 73.142857V237.71428600000002a73.142857 73.142857 0 0 0 73.142857 73.142857z m36.571429-73.142857a36.571429 36.571429 0 0 1-36.571429-36.571429v-219.428571a36.571429 36.571429 0 0 1 36.571429-36.571429h804.571428a36.571429 36.571429 0 0 1 36.571429 36.571429v219.428571a36.571429 36.571429 0 0 1-36.571429 36.571429h-804.571428zM73.142857 896h877.714286a73.142857 73.142857 0 0 0 73.142857-73.142857v-292.571429a73.142857 73.142857 0 0 0-73.142857-73.142857H73.142857a73.142857 73.142857 0 0 0-73.142857 73.142857V822.857143a73.142857 73.142857 0 0 0 73.142857 73.142857z m36.571429-73.142857a36.571429 36.571429 0 0 1-36.571429-36.571429v-219.428571a36.571429 36.571429 0 0 1 36.571429-36.571429h804.571428a36.571429 36.571429 0 0 1 36.571429 36.571429v219.428571a36.571429 36.571429 0 0 1-36.571429 36.571429h-804.571428zM146.285714 164.57142899999997h146.285715v-146.285715H146.285714zM146.285714 749.714286h146.285715v-146.285715H146.285714z"  horiz-adv-x="1024" />

    
    <glyph glyph-name="MDM-xiaoxizhongxin" unicode="&#58957;" d="M68.266667 896h955.733333a68.266667 68.266667 0 0 0 68.266667-68.266667v-682.666666a68.266667 68.266667 0 0 0-68.266667-68.266667h-270.9504l-205.960533-204.8-204.868267 204.8H68.266667a68.266667 68.266667 0 0 0-68.266667 68.266667V827.733333a68.266667 68.266667 0 0 0 68.266667 68.266667z m34.133333-68.266667a34.133333 34.133333 0 0 1-34.133333-34.133333v-614.4a34.133333 34.133333 0 0 1 34.133333-34.133333h273.749333l169.7792-169.984L717.0048 145.06666700000005H989.866667a34.133333 34.133333 0 0 1 34.133333 34.133333v614.4a34.133333 34.133333 0 0 1-34.133333 34.133333h-887.466667zM477.866667 554.666667h136.533333v-136.533334H477.866667zM750.933333 554.666667h136.533334v-136.533334h-136.533334zM204.8 554.666667h136.533333v-136.533334H204.8z"  horiz-adv-x="1092" />

    
    <glyph glyph-name="MDM-xitongkongzhicanshu" unicode="&#58958;" d="M987.428571 169.54514300000005l-73.142857-126.683429h-146.285714l-73.142857 126.683429 73.142857 126.683428h146.285714l73.142857-126.683428z m-73.142857 0l-36.571428 63.341714h-73.142857l-36.571429-63.341714 36.571429-63.341714h73.142857l36.571428 63.341714zM1170.285714 172.105143l-164.571428-285.037714h-329.142857L512 172.105143 676.571429 457.142857h329.142857L1170.285714 172.105143z m-73.142857 0l-128 221.696h-256L585.142857 172.105143l128-221.696h256L1097.142857 172.03200000000004zM950.857143 603.4285709999999h-73.142857V786.285714a36.571429 36.571429 0 0 1-36.571429 36.571429h-731.428571a36.571429 36.571429 0 0 1-36.571429-36.571429v-804.571428a36.571429 36.571429 0 0 1 36.571429-36.571429H438.857143v-73.142857H73.142857a73.142857 73.142857 0 0 0-73.142857 73.142857V822.857143a73.142857 73.142857 0 0 0 73.142857 73.142857h804.571429a73.142857 73.142857 0 0 0 73.142857-73.142857v-219.428572zM219.428571 676.571429h512v-73.142858H219.428571zM219.428571 457.142857h292.571429v-73.142857H219.428571zM219.428571 237.71428600000002h219.428572v-73.142857H219.428571z"  horiz-adv-x="1170" />

    
    <glyph glyph-name="MDM-gerenwenjianliebiao" unicode="&#58959;" d="M438.857143 237.71428600000002C277.211429 237.71428600000002 146.285714 458.24 146.285714 640S277.211429 896 438.857143 896s292.571429-74.24 292.571428-256C731.428571 458.24 600.502857 237.71428600000002 438.857143 237.71428600000002z m0 73.142857c115.419429 0 208.969143 187.757714 208.969143 329.142857C647.826286 781.385143 554.276571 822.857143 438.857143 822.857143c-115.419429 0-208.969143-41.472-208.969143-182.857143S323.437714 310.85714299999995 438.857143 310.85714299999995zM731.428571 215.03999999999996a225.718857 225.718857 0 0 1-63.122285-45.202286A380.489143 380.489143 0 0 1 450.56 237.71428600000002c-207.36 0-375.442286-163.766857-375.442286-365.714286H0c0 242.395429 201.654857 438.857143 450.486857 438.857143C556.763429 310.85714299999995 654.409143 275.01714300000003 731.428571 215.03999999999996zM877.714286 749.714286h292.571428v-73.142857h-292.571428zM877.714286 530.285714h292.571428v-73.142857h-292.571428zM877.714286 310.85714299999995h292.571428v-73.142857h-292.571428zM877.714286 91.42857100000003h292.571428v-73.142857h-292.571428z"  horiz-adv-x="1170" />

    
    <glyph glyph-name="MDM-shujuzidian" unicode="&#58960;" d="M110.656 67.96799999999996c0 67.008 56.96 121.472 127.36 121.92h584.32a299.264 299.264 0 0 1-22.016-112.192c1.984-47.68 19.84-93.568 51.2-130.88H237.952c-70.144 0.384-126.912 54.4-127.36 121.152m836.672-105.216c-43.776 27.136-67.584 82.56-67.584 114.944a234.944 234.944 0 0 0 38.592 130.88 34.944 34.944 0 0 1 0 6.72 33.792 33.792 0 0 1 0 7.488 32.704 32.704 0 0 1 0 4.48 34.56 34.56 0 0 1 0 7.488v5.952l-3.968 6.016-5.504 5.248H238.08a211.072 211.072 0 0 1-127.36-43.392V699.2c0.448 66.752 57.216 120.768 127.36 121.152h578.816c21.76 0 39.36 16.768 39.36 37.376 0 20.672-17.6 37.44-39.36 37.44H238.08C124.416 894.72 32.448 807.232 32 699.2v-630.528C32-39.615999999999985 124.16-127.61599999999999 238.08-128h713.984c21.76 0 39.296 16.768 39.296 37.376 0 20.672-28.224 43.52-44.032 53.376M495.808 629.76A42.368 42.368 0 0 1 467.776 640a42.368 42.368 0 0 1-27.968-10.24l-204.16-178.88a31.744 31.744 0 0 1 0-49.088 43.648 43.648 0 0 1 55.936 0l180.544 154.752L653.504 394.24c7.36-6.592 17.472-10.24 27.968-10.24a42.432 42.432 0 0 1 27.968 10.24l206.976 182.016a31.744 31.744 0 0 1 0 49.024 43.648 43.648 0 0 1-56 0l-179.328-157.824L495.808 629.76z"  horiz-adv-x="1024" />

    
    <glyph glyph-name="MDM-liuchengpeizhi" unicode="&#58961;" d="M935.493541 816.4830489999999h-77.982157v-78.713011H935.493541c41.658697 0 80.832489-16.371137 110.359003-46.043823 29.453429-29.745771 45.532225-69.28499 45.532225-111.3822 0-42.097209-16.224966-81.563343-45.60531-111.382199-29.453429-29.5996-68.554136-46.043823-110.285918-46.043823V501.70409L818.556848 383.59803l116.936693-118.032974V344.27806699999996c129.14196 0 233.873385 105.681536 233.873385 236.065948s-104.731425 236.139034-233.873385 236.139034z m-701.620156-787.130112c-41.658697 0-80.832489 16.444222-110.359003 46.043823a157.572193 157.572193 0 0 0-45.532225 111.455285c0 42.097209 16.224966 81.563343 45.60531 111.309114 29.453429 29.818857 68.554136 46.043823 110.285918 46.043823h77.982157V422.917993H233.873385c-129.14196 0-233.873385-105.681536-233.873385-236.065948s104.731425-236.139034 233.873385-236.139034V-128l116.936693 118.032974-116.936693 118.10606v-78.713012z m428.792235-78.639926H506.701306a39.319963 39.319963 0 0 0 0 78.713011h155.964314a39.319963 39.319963 0 0 0 0-78.713011z m0 157.426023H506.701306c-64.534437 0-116.936693-52.840768-116.936692-118.10606 0-65.192206 52.402255-118.032974 116.936692-118.032974h155.964314c64.534437 0 116.936693 52.840768 116.936692 118.032974s-52.402255 118.10606-116.936692 118.10606z m0 236.065948H506.701306a39.319963 39.319963 0 0 0 0 78.786096h155.964314a39.319963 39.319963 0 0 0 0-78.713011z m0 157.426022H506.701306c-64.534437 0-116.936693-52.840768-116.936692-118.032974s52.402255-118.032974 116.936692-118.032974h155.964314c64.534437 0 116.936693 52.840768 116.936692 118.032974s-52.402255 118.032974-116.936692 118.032974z m0 236.139034H506.701306a39.319963 39.319963 0 0 0 0 78.713011h155.964314a39.319963 39.319963 0 0 0 0-78.713011z m0 157.426022H506.701306c-64.534437 0-116.936693-52.840768-116.936692-118.032974s52.402255-118.10606 116.936692-118.106059h155.964314c64.534437 0 116.936693 52.913853 116.936692 118.106059C779.602312 842.355292 727.200057 895.19606 662.66562 895.19606z"  horiz-adv-x="1170" />

    
    <glyph glyph-name="qw-gongdan" unicode="&#58962;" d="M102.4 793.6v-819.2h819.2V793.6H102.4z m0 102.4h819.2a102.4 102.4 0 0 0 102.4-102.4v-819.2a102.4 102.4 0 0 0-102.4-102.4H102.4a102.4 102.4 0 0 0-102.4 102.4V793.6a102.4 102.4 0 0 0 102.4 102.4z m181.248-307.2h275.6608v-102.4H283.5456V588.8z m0-307.2h456.704v-102.4H283.648V281.6z"  horiz-adv-x="1024" />

    
    <glyph glyph-name="qw-dingwei" unicode="&#58963;" d="M512 896C277.333333 896 85.333333 718.762667 85.333333 502.186667 85.333333 384 181.333333 194.986667 371.2-59.050667c25.6-35.498667 64-57.173333 108.8-65.024C490.666667-128 501.333333-128 512-128c34.133333 0 68.266667 9.813333 96 27.562667 17.066667 11.861333 32 25.6 44.8 41.386666C842.666667 194.986667 938.666667 384 938.666667 502.186667 938.666667 718.762667 746.666667 896 512 896z m70.4-911.786667c-6.4-7.850667-12.8-15.701333-21.333333-19.626666a89.856 89.856 0 0 0-64-11.861334 84.053333 84.053333 0 0 0-55.466667 33.450667C217.6 285.525333 170.666667 431.274667 170.666667 502.186667 170.666667 675.413333 324.266667 817.237333 512 817.237333s341.333333-141.824 341.333333-315.050666c0-70.912-46.933333-216.661333-270.933333-517.973334zM512 640c-93.866667 0-170.666667-76.8-170.666667-170.666667s76.8-170.666667 170.666667-170.666666 170.666667 76.8 170.666667 170.666666-76.8 170.666667-170.666667 170.666667z m0-256c-46.933333 0-85.333333 38.4-85.333333 85.333333s38.4 85.333333 85.333333 85.333334 85.333333-38.4 85.333333-85.333334-38.4-85.333333-85.333333-85.333333z"  horiz-adv-x="1024" />

    
    <glyph glyph-name="shijian" unicode="&#58964;" d="M512 896A512.186182 512.186182 0 0 1 0 384C0 101.376 229.376-128 512-128S1024 101.376 1024 384 794.624 896 512 896z m0-930.909091A419.467636 419.467636 0 0 0 93.090909 384C93.090909 614.958545 281.041455 802.909091 512 802.909091S930.909091 614.958545 930.909091 384 742.958545-34.909091 512-34.909091zM558.545455 430.545455h186.181818v-93.09091H465.454545V616.727273h93.09091v-186.181818z"  horiz-adv-x="1024" />

    
    <glyph glyph-name="siji" unicode="&#58965;" d="M572.7232 486.4c90.8288 0 163.0208 69.632 163.0208 153.6S663.552 793.6 572.7232 793.6C481.792 793.6 409.6 723.968 409.6 640S481.792 486.4 572.7232 486.4z m0-102.4C425.984 384 307.2 498.688 307.2 640S425.984 896 572.7232 896c146.5344 0 265.4208-114.688 265.4208-256S719.36 384 572.7232 384zM563.2-25.6C867.4304-25.6 1024 24.576 1024 85.2992 1024 176.128 825.1392 281.6 563.2 281.6S102.4 176.128 102.4 85.2992C102.4 24.6784 258.9696-25.6 563.2-25.6z m0-102.4C252.1088-128 0-79.5648 0 85.2992 0 250.2656 252.1088 384 563.2 384S1126.4 250.2656 1126.4 85.2992C1126.4-79.5648 874.2912-128 563.2-128z"  horiz-adv-x="1126" />

    
    <glyph glyph-name="qw-chepai" unicode="&#58966;" d="M85.333333 725.333333h1194.666667a85.333333 85.333333 0 0 0 85.333333-85.333333v-682.666667a85.333333 85.333333 0 0 0-85.333333-85.333333H85.333333a85.333333 85.333333 0 0 0-85.333333 85.333333V640a85.333333 85.333333 0 0 0 85.333333 85.333333z m85.333334-180.309333v-492.714667h72.533333V412.501333h2.389333l221.184-360.106666h70.656V544.938667H464.213333v-355.413334h-2.474666L243.114667 545.024H170.666667zM820.48 554.666667c-68.096 0-121.429333-24.149333-159.829333-73.813334-37.12-46.933333-55.125333-107.690667-55.125334-182.869333 0-74.496 17.92-135.253333 55.125334-182.186667 38.4-48.298667 91.733333-73.130667 159.829333-73.130666 67.584 0 120.832 24.149333 159.829333 72.533333 37.205333 46.08 55.808 106.837333 55.808 182.784 0 75.946667-18.602667 137.386667-55.808 183.466667C941.312 530.602667 888.064 554.666667 820.48 554.666667z m0-71.082667c45.824 0 81.152-15.872 105.984-48.981333 24.149333-33.109333 36.522667-78.677333 36.522667-136.618667 0-58.026667-12.373333-102.826667-36.522667-135.253333-24.746667-32.426667-60.16-48.981333-105.984-48.981334s-81.749333 17.237333-106.496 51.029334c-24.234667 33.109333-35.925333 77.312-35.925333 133.12 0 56.661333 11.690667 100.864 35.84 133.973333 25.429333 34.474667 60.757333 51.712 106.666666 51.712z m325.205333-327.082667a41.216 41.216 0 0 1-34.048-15.872 53.589333 53.589333 0 0 1-14.250666-38.656c0-15.104 4.352-27.562667 14.250666-38.570666 8.704-9.728 20.48-15.189333 34.133334-15.189334 13.653333 0 24.746667 5.461333 34.645333 15.189334A57.6 57.6 0 0 1 1194.666667 101.973333a56.32 56.32 0 0 1-14.250667 38.656 44.032 44.032 0 0 1-34.730667 15.872zM85.333333 896h1194.666667v-85.333333H85.333333V896z"  horiz-adv-x="1365" />

    
    <glyph glyph-name="qw-chexing" unicode="&#58967;" d="M808.802462 108.307692H451.505231a157.538462 157.538462 0 1 0-272.935385 0H0V896h866.461538v-730.033231V265.846154h273.329231l-136.664615 236.307692H866.461538V580.923077h196.923077L1260.307692 265.846154v-157.538462h-178.648615a157.538462 157.538462 0 1 0-272.935385 0zM315.076923-49.230769a78.769231 78.769231 0 1 1 0 157.538461 78.769231 78.769231 0 0 1 0-157.538461z m630.153846 0a78.769231 78.769231 0 1 1 0 157.538461 78.769231 78.769231 0 0 1 0-157.538461z"  horiz-adv-x="1260" />

    
    <glyph glyph-name="qw-huanyuanhuabu" unicode="&#58968;" d="M219.428571-128v219.428571H0v73.142858h292.571429v-292.571429H219.428571zM0 676.571429h219.428571V896h73.142858v-292.571429H0V676.571429z m804.571429 219.428571v-219.428571h219.428571v-73.142858h-292.571429V896h73.142858z m219.428571-804.571429h-219.428571v-219.428571h-73.142858v292.571429h292.571429v-73.142858z"  horiz-adv-x="1024" />

    
    <glyph glyph-name="qw-qidian" unicode="&#58969;" d="M552.96 325.44768v-156.85632a143.36 143.36 0 1 0-20.48 0v154.68544c-6.7584-0.47104-13.59872-0.7168-20.48-0.7168-158.53568 0-286.72 128.18432-286.72 286.72S353.46432 896 512 896s286.72-128.18432 286.72-286.72c0-144.62976-106.68032-263.9872-245.76-283.83232z m0-177.39776v-30.84288a92.16 92.16 0 1 0-20.48 0v30.84288a122.88 122.88 0 1 1 20.48 0z m114.19648 425.02144l-29.4912 9.8304c-0.98304-17.03936-2.29376-28.50816-4.25984-34.4064-2.29376-6.5536-7.20896-9.8304-15.07328-9.8304H578.3552c-7.86432 0.32768-11.79648 3.93216-11.79648 11.14112v68.8128h86.17984V732.32384h-121.2416v-29.16352h90.76736v-55.05024H535.7568v-110.42816c0-19.33312 9.50272-29.16352 29.16352-29.16352h58.65472c16.384 0 27.19744 4.25984 32.11264 12.12416 5.24288 8.192 8.84736 25.55904 11.4688 52.4288z m-273.28512 21.2992C391.90528 548.49536 383.71328 506.88 368.64 469.52448l23.92064-20.97152c6.88128 16.71168 12.77952 34.4064 17.36704 53.41184 11.14112-15.72864 24.24832-26.86976 38.99392-33.75104 19.33312-8.51968 67.50208-13.1072 144.50688-13.1072h74.71104l5.24288 29.81888c-19.00544-1.31072-48.16896-1.96608-86.8352-1.96608-53.73952 0-90.76736 2.29376-111.73888 6.5536v54.72256h43.58144V572.416h-43.58144v39.3216h45.8752v28.83584h-52.75648v41.28768h48.49664V710.0416h-48.49664V752.64h-30.80192v-42.5984H385.67936v-28.18048h51.44576v-41.28768h-57.344v-28.83584h64.88064v-108.46208c-10.48576 7.86432-19.6608 18.35008-28.18048 32.11264 2.62144 17.69472 4.58752 36.37248 5.24288 55.7056l-27.8528 3.2768z"  horiz-adv-x="1024" />

    
    <glyph glyph-name="qw-quanping" unicode="&#58970;" d="M292.571429 896v-68.242286H68.242286V603.428571H0V896h292.571429z m438.857142 0h292.571429v-292.571429h-68.242286V827.757714H731.428571V896zM292.571429-59.757714V-128H0v292.571429h68.242286v-224.329143H292.571429z m438.857142 0h224.329143V164.571429H1024v-292.571429h-292.571429v68.242286z"  horiz-adv-x="1024" />

    
    <glyph glyph-name="qw-shijian" unicode="&#58971;" d="M544.085333-128a512 512 0 1 0 0 1024 512 512 0 0 0 0-1024zM546.133333 430.4896V691.2a34.133333 34.133333 0 0 1-68.266666 0v-273.066667a34.133333 34.133333 0 0 1 7.918933-21.845333l170.666667-204.8a34.133333 34.133333 0 0 1 52.4288 43.690667L546.133333 430.4896z"  horiz-adv-x="1092" />

    
    <glyph glyph-name="qw-riqi" unicode="&#58972;" d="M731.428571 749.714286h292.571429v-877.714286H0V749.714286h292.571429V896h73.142857v-146.285714h292.571428V896h73.142857v-146.285714zM146.285714 457.142857v-146.285714h146.285715V457.142857H146.285714z m292.571429 0v-146.285714h146.285714V457.142857H438.857143z m292.571428 0v-146.285714h146.285715V457.142857h-146.285715z m0-292.571428v-146.285715h146.285715v146.285715h-146.285715z m-292.571428 0v-146.285715h146.285714v146.285715H438.857143z m-292.571429 0v-146.285715h146.285715v146.285715H146.285714z m146.285715 585.142857v-198.582857h73.142857V749.714286H292.571429z m438.857142 0H658.285714v-198.582857h73.142857V749.714286z"  horiz-adv-x="1024" />

    
    <glyph glyph-name="qw-siji" unicode="&#58973;" d="M548.571429 640m-256 0a256 256 0 1 1 512 0 256 256 0 1 1-512 0ZM548.571429-128c302.957714 0 548.571429 41.472 548.571428 182.857143S851.529143 310.857143 548.571429 310.857143C245.613714 310.857143 0 196.242286 0 54.857143S245.613714-128 548.571429-128z"  horiz-adv-x="1097" />

    
    <glyph glyph-name="qw-shoujihao" unicode="&#58974;" d="M224 896h576a64 64 0 0 0 64-64v-896a64 64 0 0 0-64-64H224a64 64 0 0 0-64 64V832a64 64 0 0 0 64 64z m192-896v-64h192v64H416z m-128 64h512v64H288v-64zM480 832v-64h64V832H480z"  horiz-adv-x="1024" />

    
    <glyph glyph-name="qw-shouqi" unicode="&#58975;" d="M0 896h1280v-170.666667H0V896z m0-426.666667h597.333333v-170.666666H0V469.333333z m0-426.666666h1280v-170.666667H0v170.666667z m853.333333 512h426.666667l-213.333333-256L853.333333 554.666667z"  horiz-adv-x="1280" />

    
    <glyph glyph-name="qw-zhankai" unicode="&#58976;" d="M0 896h2048L1024-128z"  horiz-adv-x="2048" />

    
    <glyph glyph-name="wq-chehuo" unicode="&#58977;" d="M1058.133333 657.066667H0l54.442667 184.9344C63.8976 874.257067 91.306667 896 122.129067 896h813.8752c30.8224 0 58.129067-21.742933 67.6864-53.998933L1058.133333 657.066667zM0 657.066667v-712.260267C0-95.402667 29.661867-128 66.2528-128H991.914667C1028.437333-128 1058.133333-95.402667 1058.133333-55.1936V657.066667H0z m385.7408-603.067734H153.1904c-22.801067 0-41.472 20.3776-41.472 45.568 0 25.156267 18.568533 45.533867 41.472 45.533867h232.448c22.766933 0 41.437867-20.3776 41.437867-45.533867 0-25.1904-18.5344-45.568-41.335467-45.568z m123.665067 216.132267H153.1904c-22.801067 0-41.472 20.3776-41.472 45.533867 0 25.1904 18.568533 45.568 41.472 45.568H509.269333c22.801067 0 41.472-20.3776 41.472-45.568 0-25.156267-18.5344-45.533867-41.335466-45.533867z m434.176 30.481067l-76.458667-83.968a23.415467 23.415467 0 0 0-17.442133-7.918934 23.415467 23.415467 0 0 0-17.476267 7.918934 28.8768 28.8768 0 0 0 0 38.2976l28.5696 31.402666h-151.074133c-13.585067 0-24.6784 12.0832-24.6784 27.136 0 15.018667 10.990933 27.136 24.6784 27.136h155.204266l-32.597333 35.84a28.8768 28.8768 0 0 0 0 38.263467 23.005867 23.005867 0 0 0 34.816 0l76.458667-83.968a22.8352 22.8352 0 0 0 0-30.139733z"  horiz-adv-x="1058" />

    
    <glyph glyph-name="wq-huangdingwei" unicode="&#58978;" d="M510.292912 895.996587C298.581618 895.057923 127.06219 717.394515 128.000853 500.05124c0.85333-203.945987 317.268276-571.560761 353.278823-612.861957a44.031853 44.031853 0 0 1 66.730444 0.341332C583.679334-70.91219 896.851624 299.518575 895.998293 503.549895 895.05963 720.89317 722.004207 896.849917 510.292912 895.996587z m2.474659-567.294109c-85.759714-0.341332-155.90348 70.911764-156.244813 158.97547-0.426665 88.063706 69.11977 159.999467 154.794151 160.426132 85.845047 0.341332 155.90348-70.997097 156.244812-158.97547 0.426665-88.063706-69.11977-159.999467-154.79415-160.426132z"  horiz-adv-x="1024" />

    
    <glyph glyph-name="wq-qingdingwei" unicode="&#58979;" d="M510.292912 895.996587C298.581618 895.057923 127.06219 717.394515 128.000853 500.05124c0.85333-203.945987 317.268276-571.560761 353.278823-612.861957a44.031853 44.031853 0 0 1 66.730444 0.341332C583.679334-70.91219 896.851624 299.518575 895.998293 503.549895 895.05963 720.89317 722.004207 896.849917 510.292912 895.996587z m2.474659-567.294109c-85.759714-0.341332-155.90348 70.911764-156.244813 158.97547-0.426665 88.063706 69.11977 159.999467 154.794151 160.426132 85.845047 0.341332 155.90348-70.997097 156.244812-158.97547 0.426665-88.063706-69.11977-159.999467-154.79415-160.426132z"  horiz-adv-x="1024" />

    
    <glyph glyph-name="wq-rongqi" unicode="&#58980;" d="M316.923174 474.281494c0 12.285666 6.701272 23.733672 17.776986 29.783432l157.479897 88.419564a36.856997 36.856997 0 0 0 36.112411 0l157.479897-88.419564a34.437093 34.437093 0 0 0 17.776986-29.783432v-170.975515a33.971727 33.971727 0 0 0-17.776986-29.783432l-157.479897-88.419564a36.856997 36.856997 0 0 0-36.112411 0l-157.479897 88.419564a34.437093 34.437093 0 0 0-17.776986 29.783432V474.281494zM815.516441 570.146916L511.91158 741.40165 208.30672 570.146916 70.744493 652.51672 493.855375 891.156469a37.043144 37.043144 0 0 0 36.205484 0l423.110882-238.639749-137.748373-82.276731zM189.785148 435.190739v-226.81945L511.91158 26.506207l322.126433 181.772009V435.190739L977.277706 520.818106v-371.827534a34.250947 34.250947 0 0 0-17.683912-29.783432l-429.626008-242.362679a37.043144 37.043144 0 0 0-36.205484 0L64.229367 119.20714a34.250947 34.250947 0 0 0-17.683912 29.783432V520.818106l143.239693-85.627367z"  horiz-adv-x="1024" />

    
    <glyph glyph-name="wq-changkuangao" unicode="&#58981;" d="M945.664 664.490667l-1.024 1.962666-1.28-0.682666L512 896 42.666667 648.96v-531.029333L512-128 981.333333 120.234667V645.461333l-35.669333 19.029334z m-79.786667-40.106667L510.549333 434.688l-356.437333 190.293333L511.744 813.226667l354.133333-189.013334z m-750.848-61.44l363.008-193.621333v-397.141334L115.029333 162.474667V562.944z m667.136-465.493333l-108.714666-57.514667-122.965334-65.024v398.506667l358.4 191.317333V164.693333l-126.72-67.242666z"  horiz-adv-x="1024" />

    
    <glyph glyph-name="qw-zhongdian" unicode="&#58982;" d="M552.96 168.59136a143.36 143.36 0 1 0-20.48 0v154.68544c-6.7584-0.47104-13.59872-0.7168-20.48-0.7168-158.53568 0-286.72 128.18432-286.72 286.72S353.46432 896 512 896s286.72-128.18432 286.72-286.72c0-144.62976-106.68032-263.9872-245.76-283.83232v-156.85632z m0-20.54144v-30.84288a92.16 92.16 0 1 0-20.48 0v30.84288a122.88 122.88 0 1 1 20.48 0z m-82.24768 375.37792c-30.80192-11.14112-66.84672-20.31616-108.1344-26.86976l4.58752-32.768a646.4512 646.4512 0 0 1 103.54688 27.8528v31.78496zM412.0576 756.736a587.01824 587.01824 0 0 0-40.30464-96.01024c-3.60448-5.89824-7.86432-9.50272-12.77952-11.4688l7.53664-28.18048c16.384 2.62144 32.11264 4.9152 47.5136 7.20896-14.41792-27.19744-26.2144-46.20288-35.71712-57.344-3.93216-3.60448-8.51968-6.5536-13.76256-8.84736l8.192-28.18048c26.2144 3.93216 54.39488 11.79648 84.21376 22.9376V584.704c-16.384-6.5536-32.44032-11.79648-48.49664-16.05632 17.69472 24.576 39.3216 64.22528 65.536 118.62016l-27.19744 10.15808c-6.5536-14.41792-13.1072-28.18048-19.00544-40.96-10.81344-1.96608-21.62688-3.60448-32.768-4.9152 15.72864 24.24832 30.80192 55.37792 45.8752 94.04416L412.0576 756.736z m125.82912-176.61952l-16.384-23.92064c31.78496-8.51968 62.58688-19.6608 92.73344-34.07872l15.40096 23.59296a568.27904 568.27904 0 0 1-91.7504 34.4064z m-39.64928-52.4288l-17.69472-25.88672a840.23296 840.23296 0 0 0 144.83456-49.80736l16.384 25.88672c-43.25376 19.6608-91.09504 36.0448-143.52384 49.80736z m27.52512 228.72064c-9.8304-35.71712-28.83584-65.86368-56.36096-90.76736l19.6608-25.55904c8.51968 7.86432 16.71168 16.384 24.24832 25.23136 9.8304-11.14112 20.64384-21.62688 32.44032-32.11264-24.24832-19.00544-52.4288-33.09568-83.88608-42.92608l15.40096-27.52512c35.06176 11.79648 65.86368 28.83584 92.40576 50.7904a405.79072 405.79072 0 0 1 79.95392-46.53056l16.384 28.18048c-27.19744 11.14112-52.10112 23.92064-74.38336 38.66624 18.35008 19.00544 34.07872 41.61536 47.18592 67.1744V726.26176h-90.112c3.2768 8.192 5.89824 17.03936 8.51968 26.2144l-31.45728 3.93216z m41.28768-104.52992a300.81024 300.81024 0 0 0-37.6832 35.71712c1.6384 2.94912 3.2768 5.89824 5.24288 8.84736h68.48512a264.8064 264.8064 0 0 0-36.0448-44.56448z"  horiz-adv-x="1024" />

    
    <glyph glyph-name="wq-zuobiao" unicode="&#58983;" d="M26.454045 488.345276H118.598688L3.503204 338.610232A17.063823 17.063823 0 0 1 0.00512 327.945342v-11.859356A17.063823 17.063823 0 0 1 16.898304 298.766206h141.629729a17.063823 17.063823 0 0 1 16.893184 17.31978v5.801699a17.063823 17.063823 0 0 1-16.978503 17.31978H54.609353l1.706382 1.877021 115.180803 147.602066a17.661056 17.661056 0 0 1 3.583403 10.57957v11.859357a17.063823 17.063823 0 0 1-16.893185 17.31978H26.112769a17.063823 17.063823 0 0 1-16.893185-17.31978v-5.8017c0.597234-9.385102 8.019997-17.063823 17.234461-17.063822z m571.894018 311.84136c-2.986169 6.398934-37.113814 61.771038-49.911682 82.75954a16.637227 16.637227 0 0 1-14.248291 7.849358h-11.859357c-13.309782 0-21.329778-15.186802-14.248292-26.448925l67.402099-108.013998v-73.033161a17.063823 17.063823 0 0 1 16.893185-17.31978h10.408932a17.063823 17.063823 0 0 1 16.893184 17.31978V761.195801L691.175258 868.953841C698.853979 880.471921 690.919301 896 677.268243 896h-11.006166a16.210632 16.210632 0 0 1-14.248292-8.190635c-13.651058-21.927012-49.485086-80.967839-53.751041-87.622729z m530.684886-379.072822l55.713381 76.360607c9.214464 12.797867 0.597234 30.970838-15.101483 30.970838h-0.597234a18.172971 18.172971 0 0 1-14.845526-7.593401l-47.778703-62.965506-45.389769 62.709549a18.940843 18.940843 0 0 1-15.186802 7.849358h-5.972338c-15.35744 0-24.315947-17.917014-15.35744-30.714881l56.651891-81.565072-64.671888-86.086986c-9.555741-12.797867-0.853191-31.312115 14.845526-31.312114 5.972338 0 11.51808 3.071488 15.101483 7.934677l54.006999 74.824863 53.751041-74.824863a18.940843 18.940843 0 0 1 15.101483-7.934677h6.228296c15.186802 0 24.315947 17.661056 15.442759 30.458923l-62.026995 91.888685zM1035.181924 234.520913l-389.82303-228.143309V506.091651C645.358894 535.10015 625.991456 554.723546 597.238914 554.723546c-28.752541 0-48.205299-19.623396-48.205299-48.631895v-499.970005L159.295905 234.094318c-24.05999 14.504249-52.89785 4.77787-67.231462-19.623396-14.41893-24.230628-4.692551-53.239127 19.367439-67.743377l462.003-266.963506s11.774038-7.67872 24.05999-7.67872c12.371271 0 24.145309 7.67872 24.145309 7.67872L1083.557861 151.846692c23.462756 9.726379 33.189135 38.820197 18.770205 63.136144-14.41893 24.230628-43.171471 29.008499-67.231461 19.538077z"  horiz-adv-x="1194" />

    
    <glyph glyph-name="chengpei-dingdanguanli" unicode="&#58984;" d="M272.457143 896a36.571429 36.571429 0 0 0 0-73.142857H146.285714a36.571429 36.571429 0 0 1-36.571428-36.571429v-804.571428a36.571429 36.571429 0 0 1 36.571428-36.571429h731.428572a36.571429 36.571429 0 0 1 36.571428 36.571429v804.571428A36.571429 36.571429 0 0 1 877.714286 822.857143h-127.341715a36.571429 36.571429 0 0 0 0 73.142857H877.714286a109.714286 109.714286 0 0 0 109.714285-109.714286v-804.571428A109.714286 109.714286 0 0 0 877.714286-128H146.285714a109.714286 109.714286 0 0 0-109.714285 109.714286v804.571428A109.714286 109.714286 0 0 0 146.285714 896h126.171429zM402.285714 822.857143a36.571429 36.571429 0 1 0 0 73.142857h219.428572a36.571429 36.571429 0 1 0 0-73.142857h-219.428572z m0-365.714286a36.571429 36.571429 0 1 0 0 73.142857h365.714286a36.571429 36.571429 0 1 0 0-73.142857h-365.714286z m-73.142857-182.857143a36.571429 36.571429 0 1 0 0 73.142857h438.857143a36.571429 36.571429 0 1 0 0-73.142857h-438.857143z m-73.142857-182.857143a36.571429 36.571429 0 1 0 0 73.142858h512a36.571429 36.571429 0 1 0 0-73.142858h-512z"  horiz-adv-x="1024" />

    
    <glyph glyph-name="chengpei-jiankongguanli" unicode="&#58985;" d="M73.142857 822.857143v-731.428572h877.714286V822.857143H73.142857z m0 73.142857h877.714286a73.142857 73.142857 0 0 0 73.142857-73.142857v-731.428572a73.142857 73.142857 0 0 0-73.142857-73.142857H73.142857a73.142857 73.142857 0 0 0-73.142857 73.142857V822.857143a73.142857 73.142857 0 0 0 73.142857 73.142857z m73.142857-1024a36.571429 36.571429 0 1 0 0 73.142857h731.428572a36.571429 36.571429 0 1 0 0-73.142857H146.285714z m151.478857 412.16a36.571429 36.571429 0 0 0-35.108571-26.624H141.531429a36.571429 36.571429 0 1 0 0 73.142857h93.330285l43.52 153.892572a36.571429 36.571429 0 0 0 68.608 4.900571l84.845715-190.171429 128.292571 434.249143a36.571429 36.571429 0 0 0 68.242286 4.973715l147.382857-319.341715h90.697143a36.571429 36.571429 0 1 0 0-73.142857h-114.102857a36.571429 36.571429 0 0 0-33.206858 21.211429l-116.443428 252.342857L473.965714 183.588571a36.571429 36.571429 0 0 0-68.534857-4.534857l-84.114286 188.489143-23.552-83.309714z"  horiz-adv-x="1024" />

    
    </font>
</defs>
</svg>
