<?xml version="1.0" encoding="UTF-8"?>
<svg width="20px" height="15px" viewBox="0 0 20 15" version="1.1" xmlns="http://www.w3.org/2000/svg" xmlns:xlink="http://www.w3.org/1999/xlink">
    <!-- Generator: Sketch 61 (89581) - https://sketch.com -->
    <title>failure</title>
    <desc>Created with Sketch.</desc>
    <g id="Page-1" stroke="none" stroke-width="1" fill="none" fill-rule="evenodd">
        <g id="Artboard" transform="translate(-1235.000000, -218.000000)" fill="#333333">
            <path d="M1238.999,218 L1239,218.001 L1244.776,218.001 L1241.34,223.471915 L1241.613,223.905 L1243.605,227.093 L1239.915,233 L1238.735,233 L1238.736,232.999915 L1237,233.000995 C1235.89543,233.000995 1235,232.105565 1235,231.000995 L1235,220.000995 C1235,218.896426 1235.89543,218.000995 1237,218.000995 L1238.999,218 Z M1253,218.000995 C1254.10457,218.000995 1255,218.896426 1255,220.000995 L1255,231.000995 C1255,232.105565 1254.10457,233.000995 1253,233.000995 L1242.457,232.999915 L1242.456,233 L1241.271,233 L1244.4909,227.848906 L1244.488,227.847 L1244.972,227.071915 L1243.308,224.421915 L1242.714,223.471 L1243.302,222.531 L1243.306,222.537915 L1246.141,218.001 L1249,218.001 L1248.999,218 L1253,218.000995 Z M1247.01989,227.144549 L1246.93665,227.179384 L1245.722,227.82 L1245.57639,228.033313 L1245.571,228.024915 L1243.083,231.999915 L1253,232.000995 L1253.039,231.998 L1252.64458,231.998901 L1252.08131,231.000995 L1250.8855,228.693586 C1250.88491,228.692449 1250.88432,228.691316 1250.88372,228.690184 C1250.76911,228.473125 1250.51738,228.375187 1250.29135,228.446661 L1250.20811,228.481503 L1249.05094,229.092522 C1249.04886,229.093621 1249.04677,229.094705 1249.04467,229.095774 C1248.82602,229.207311 1248.56379,229.142516 1248.42009,228.953975 L1248.37207,228.877575 L1247.61548,227.394351 C1247.61441,227.392267 1247.61333,227.390191 1247.61224,227.388122 C1247.49765,227.171054 1247.24592,227.073094 1247.01989,227.144549 Z M1239.35774,228.584422 L1239.30942,228.660629 L1238.10368,231.000995 L1237.59258,231.998901 L1237,231.999 L1237,232.000995 L1239.361,231.999915 L1241.391,228.749 L1241.38355,228.750336 C1241.0141,228.795904 1240.64026,228.744043 1240.2987,228.601419 L1240.13078,228.522575 L1239.98586,228.44668 C1239.98487,228.446164 1239.98388,228.445651 1239.98289,228.445142 C1239.76469,228.332724 1239.5022,228.396462 1239.35774,228.584422 Z M1242.975,218.999915 L1237,219.000995 C1236.48716,219.000995 1236.06449,219.387036 1236.00673,219.884374 L1236,220.000995 L1236,231.000995 C1236,231.397805 1236.23112,231.740633 1236.56609,231.902208 L1237.01086,231.000995 L1238.67688,227.807184 C1238.93231,227.317517 1239.53633,227.127631 1240.026,227.383061 L1240.02737,227.38378 L1240.19223,227.470102 C1240.75062,227.762485 1241.38473,227.86658 1242.00126,227.77309 L1242.432,227.083915 L1240.77,224.377915 L1240.76871,224.382613 L1240.1933,223.445386 L1240.195,223.441915 L1240.13095,223.336677 L1240.706,222.624915 L1242.975,218.999915 Z M1246.697,218.999 L1243.896,223.480915 L1245.88,226.653 L1246.902,226.121501 C1247.39166,225.866055 1247.99568,226.055922 1248.25113,226.545581 C1248.25201,226.547263 1248.25288,226.548949 1248.25375,226.550637 L1248.77969,227.572951 C1248.90602,227.818504 1249.20748,227.915156 1249.45304,227.788829 C1249.45418,227.788239 1249.45533,227.787644 1249.45647,227.787045 L1250.16713,227.414456 C1250.65626,227.15801 1251.26068,227.346641 1251.51713,227.835776 C1251.51792,227.837293 1251.51871,227.838812 1251.5195,227.840333 L1253.15594,231.000995 L1253.59118,231.807615 C1253.80955,231.647304 1253.96042,231.400459 1253.99327,231.117617 L1254,231.000995 L1254,220.000995 C1254,219.448711 1253.55228,219.000995 1253,219.000995 L1246.697,218.999 Z M1250,221.999 C1250.55228,221.999 1251,222.446715 1251,222.999 C1251,223.551285 1250.55228,223.999 1250,223.999 C1249.44772,223.999 1249,223.551285 1249,222.999 C1249,222.446715 1249.44772,221.999 1250,221.999 Z" id="failure"></path>
        </g>
    </g>
</svg>